<svg width="48" height="48" viewBox="0 0 48 48" fill="none" xmlns="http://www.w3.org/2000/svg">
<path d="M38.2857 32.5714C37.2768 32.5764 36.2885 32.858 35.4286 33.3857L31.0143 28.9571C32.0414 27.5082 32.5931 25.776 32.5931 24C32.5931 22.224 32.0414 20.4918 31.0143 19.0429L35.4286 14.6143C36.2885 15.142 37.2768 15.4236 38.2857 15.4286C39.4159 15.4286 40.5207 15.0934 41.4604 14.4655C42.4001 13.8376 43.1325 12.9452 43.565 11.901C43.9975 10.8569 44.1107 9.70795 43.8902 8.59949C43.6697 7.49102 43.1255 6.47283 42.3263 5.67368C41.5272 4.87452 40.509 4.33029 39.4005 4.1098C38.2921 3.88931 37.1431 4.00248 36.099 4.43498C35.0548 4.86748 34.1624 5.59989 33.5345 6.5396C32.9066 7.47931 32.5714 8.58411 32.5714 9.71429C32.5764 10.7232 32.858 11.7115 33.3857 12.5714L28.9571 16.9857C27.5082 15.9586 25.776 15.4069 24 15.4069C22.224 15.4069 20.4918 15.9586 19.0429 16.9857L14.6143 12.5714C15.142 11.7115 15.4236 10.7232 15.4286 9.71429C15.4286 8.58411 15.0934 7.47931 14.4655 6.5396C13.8376 5.59989 12.9452 4.86748 11.901 4.43498C10.8569 4.00248 9.70795 3.88931 8.59949 4.1098C7.49102 4.33029 6.47283 4.87452 5.67368 5.67368C4.87452 6.47283 4.33029 7.49102 4.1098 8.59949C3.88931 9.70795 4.00248 10.8569 4.43498 11.901C4.86748 12.9452 5.59989 13.8376 6.5396 14.4655C7.47931 15.0934 8.58411 15.4286 9.71429 15.4286C10.7232 15.4236 11.7115 15.142 12.5714 14.6143L16.9857 19.0429C15.9586 20.4918 15.4069 22.224 15.4069 24C15.4069 25.776 15.9586 27.5082 16.9857 28.9571L12.5714 33.3857C11.7115 32.858 10.7232 32.5764 9.71429 32.5714C8.58411 32.5714 7.47931 32.9066 6.5396 33.5345C5.59989 34.1624 4.86748 35.0548 4.43498 36.099C4.00248 37.1431 3.88931 38.2921 4.1098 39.4005C4.33029 40.509 4.87452 41.5272 5.67368 42.3263C6.47283 43.1255 7.49102 43.6697 8.59949 43.8902C9.70795 44.1107 10.8569 43.9975 11.901 43.565C12.9452 43.1325 13.8376 42.4001 14.4655 41.4604C15.0934 40.5207 15.4286 39.4159 15.4286 38.2857C15.4236 37.2768 15.142 36.2885 14.6143 35.4286L19.0429 31.0143C20.4918 32.0414 22.224 32.5931 24 32.5931C25.776 32.5931 27.5082 32.0414 28.9571 31.0143L33.3857 35.4286C32.858 36.2885 32.5764 37.2768 32.5714 38.2857C32.5714 39.4159 32.9066 40.5207 33.5345 41.4604C34.1624 42.4001 35.0548 43.1325 36.099 43.565C37.1431 43.9975 38.2921 44.1107 39.4005 43.8902C40.509 43.6697 41.5272 43.1255 42.3263 42.3263C43.1255 41.5272 43.6697 40.509 43.8902 39.4005C44.1107 38.2921 43.9975 37.1431 43.565 36.099C43.1325 35.0548 42.4001 34.1624 41.4604 33.5345C40.5207 32.9066 39.4159 32.5714 38.2857 32.5714ZM38.2857 6.85714C38.8508 6.85714 39.4032 7.02471 39.8731 7.33866C40.3429 7.65261 40.7091 8.09883 40.9254 8.62091C41.1416 9.14298 41.1982 9.71746 41.088 10.2717C40.9777 10.8259 40.7056 11.335 40.306 11.7346C39.9064 12.1342 39.3973 12.4063 38.8431 12.5165C38.2889 12.6268 37.7144 12.5702 37.1923 12.3539C36.6703 12.1377 36.224 11.7715 35.9101 11.3016C35.5961 10.8318 35.4286 10.2794 35.4286 9.71429C35.4286 8.95653 35.7296 8.2298 36.2654 7.69398C36.8012 7.15816 37.528 6.85714 38.2857 6.85714V6.85714ZM6.85714 9.71429C6.85714 9.1492 7.02471 8.5968 7.33866 8.12694C7.65261 7.65709 8.09883 7.29088 8.62091 7.07463C9.14298 6.85838 9.71746 6.8018 10.2717 6.91204C10.8259 7.02229 11.335 7.2944 11.7346 7.69398C12.1342 8.09356 12.4063 8.60266 12.5165 9.15689C12.6268 9.71112 12.5702 10.2856 12.3539 10.8077C12.1377 11.3297 11.7715 11.776 11.3016 12.0899C10.8318 12.4039 10.2794 12.5714 9.71429 12.5714C8.95653 12.5714 8.2298 12.2704 7.69398 11.7346C7.15816 11.1988 6.85714 10.472 6.85714 9.71429V9.71429ZM9.71429 41.1429C9.1492 41.1429 8.5968 40.9753 8.12694 40.6613C7.65709 40.3474 7.29088 39.9012 7.07463 39.3791C6.85838 38.857 6.8018 38.2825 6.91204 37.7283C7.02229 37.1741 7.2944 36.665 7.69398 36.2654C8.09356 35.8658 8.60266 35.5937 9.15689 35.4835C9.71112 35.3732 10.2856 35.4298 10.8077 35.6461C11.3297 35.8623 11.776 36.2285 12.0899 36.6984C12.4039 37.1682 12.5714 37.7206 12.5714 38.2857C12.5714 39.0435 12.2704 39.7702 11.7346 40.306C11.1988 40.8418 10.472 41.1429 9.71429 41.1429ZM24 29.7143C22.8698 29.7143 21.765 29.3791 20.8253 28.7513C19.8856 28.1234 19.1532 27.2309 18.7207 26.1868C18.2882 25.1426 18.175 23.9937 18.3955 22.8852C18.616 21.7767 19.1602 20.7585 19.9594 19.9594C20.7585 19.1602 21.7767 18.616 22.8852 18.3955C23.9937 18.175 25.1426 18.2882 26.1868 18.7207C27.2309 19.1532 28.1234 19.8856 28.7513 20.8253C29.3791 21.765 29.7143 22.8698 29.7143 24C29.7143 25.5155 29.1122 26.969 28.0406 28.0406C26.969 29.1122 25.5155 29.7143 24 29.7143ZM38.2857 41.1429C37.7206 41.1429 37.1682 40.9753 36.6984 40.6613C36.2285 40.3474 35.8623 39.9012 35.6461 39.3791C35.4298 38.857 35.3732 38.2825 35.4835 37.7283C35.5937 37.1741 35.8658 36.665 36.2654 36.2654C36.665 35.8658 37.1741 35.5937 37.7283 35.4835C38.2825 35.3732 38.857 35.4298 39.3791 35.6461C39.9012 35.8623 40.3474 36.2285 40.6613 36.6984C40.9753 37.1682 41.1429 37.7206 41.1429 38.2857C41.1429 39.0435 40.8418 39.7702 40.306 40.306C39.7702 40.8418 39.0435 41.1429 38.2857 41.1429Z" fill="#00F47F"/>
</svg>
