<svg width="56" height="60" viewBox="0 0 56 60" fill="none" xmlns="http://www.w3.org/2000/svg">
<rect x="8.01975" y="12" width="43.1062" height="30" fill="white"/>
<path d="M48.9287 0C52.5076 0 55.3942 2.8425 55.5647 6.1875V60L48.7505 54.3175L45.0087 50.9725L40.9258 47.4775L42.6313 52.99H6.89818C3.32946 52.99 0.432728 50.3275 0.432728 46.8V6.2C0.432728 2.855 3.33455 0.0075 6.91091 0.0075H48.9109L48.9287 0ZM33.3556 14.2075H33.2793L32.7651 14.7075C38.0418 16.2075 40.5949 18.55 40.5949 18.55C37.1942 16.88 34.1295 16.045 31.0647 15.7075C28.8502 15.37 26.6356 15.5475 24.7647 15.7075H24.2556C23.0593 15.7075 20.5138 16.2075 17.1029 17.545C15.9142 18.0525 15.232 18.385 15.232 18.385C15.232 18.385 17.7825 15.88 23.4029 14.5425L23.0593 14.205C23.0593 14.205 18.8033 14.045 14.2087 17.38C14.2087 17.38 9.61418 25.24 9.61418 34.93C9.61418 34.93 12.1596 39.28 19.1418 39.445C19.1418 39.445 20.16 38.1125 21.1909 36.94C17.2709 35.77 15.7436 33.43 15.7436 33.43C15.7436 33.43 16.0847 33.595 16.5964 33.93H16.7491C16.8255 33.93 16.8611 33.9675 16.9018 34.005V34.02C16.9425 34.06 16.9782 34.095 17.0545 34.095C17.8945 34.435 18.7345 34.77 19.4218 35.095C20.608 35.6 22.1327 36.1025 24.0036 36.435C26.3709 36.7725 29.0844 36.935 32.1745 36.435C33.7018 36.0975 35.2291 35.7675 36.7564 35.0975C37.7491 34.5975 38.9709 34.0975 40.3124 33.255C40.3124 33.255 38.7851 35.595 34.6996 36.765C35.5396 37.93 36.7233 39.265 36.7233 39.265C43.708 39.115 46.4215 34.765 46.5742 34.95C46.5742 25.275 41.9542 17.4 41.9542 17.4C37.7924 14.365 33.8978 14.25 33.2105 14.25L33.3531 14.2L33.3556 14.2075ZM33.7833 25.24C35.5727 25.24 37.016 26.74 37.016 28.5775C37.016 30.4275 35.5651 31.9275 33.7833 31.9275C32.0015 31.9275 30.5505 30.4275 30.5505 28.5925C30.5556 26.7425 32.0091 25.2475 33.7833 25.2475V25.24ZM22.2193 25.24C24.0011 25.24 25.4418 26.74 25.4418 28.5775C25.4418 30.4275 23.9909 31.9275 22.2091 31.9275C20.4273 31.9275 18.9764 30.4275 18.9764 28.5925C18.9764 26.7425 20.4273 25.2475 22.2091 25.2475L22.2193 25.24Z" fill="#2D2D2D"/>
</svg>
