<svg width="60" height="60" viewBox="0 0 60 60" fill="none" xmlns="http://www.w3.org/2000/svg">
<path fill-rule="evenodd" clip-rule="evenodd" d="M2.99591 0H57.0041C58.6587 0 60 1.33731 60 2.99594V57.0041C60 58.6587 58.6627 60 57.0041 60H2.99591C1.3413 60 0 58.6627 0 57.0041V2.99594C0 1.34133 1.33728 0 2.99591 0Z" fill="#2D2D2D"/>
<path fill-rule="evenodd" clip-rule="evenodd" d="M49.608 26.7949V26.7982C49.6137 26.88 49.6154 26.9614 49.6154 27.0424C49.6154 27.9504 49.3278 28.8235 48.8478 29.5641C48.3998 30.2574 47.7819 30.8377 47.0706 31.231C47.1161 31.5924 47.1428 31.9567 47.1428 32.3197C47.1419 34.2748 46.4761 36.1968 45.3167 37.7369V37.7377H45.3143C43.1707 40.6245 39.8792 42.3272 36.5553 43.1857H36.5544L36.552 43.1878C34.7797 43.6235 32.952 43.8461 31.1247 43.8461C28.401 43.8461 25.6794 43.349 23.1399 42.3176L23.1391 42.3151H23.1366C20.5036 41.2165 17.9949 39.4698 16.4564 36.9108C15.6285 35.545 15.1744 33.9434 15.1744 32.3338C15.1744 31.9695 15.1986 31.6053 15.2466 31.2443C14.5537 30.8493 13.9534 30.289 13.5079 29.6202C13.032 28.9017 12.7305 28.0601 12.6923 27.1703V27.1671V27.1638V27.1562C12.6931 25.9101 13.2277 24.7297 14.0585 23.8595C14.8892 22.9893 16.024 22.4207 17.2412 22.4207H17.2917C17.4193 22.4119 17.5481 22.4069 17.6769 22.4069C18.2882 22.4069 18.9011 22.507 19.4828 22.733L19.4861 22.7355L19.4894 22.7363C19.9863 22.9482 20.4798 23.2036 20.9196 23.5575C21.0624 23.4819 21.2179 23.3968 21.3922 23.3295C24.0589 21.7307 27.1584 21.1139 30.1791 20.9361C30.2053 19.4209 30.3891 17.835 31.119 16.4468C31.727 15.2937 32.7818 14.3957 34.038 14.0846L34.0428 14.0821L34.0494 14.0813C34.5278 13.9874 35.0103 13.9442 35.4894 13.9442C36.7657 13.9442 38.0273 14.2504 39.2072 14.728C39.7294 13.9297 40.4757 13.3066 41.3508 12.9573L41.3589 12.9523L41.3672 12.949C41.8808 12.787 42.4232 12.6923 42.968 12.6923C43.5424 12.6923 44.1212 12.7986 44.6636 13.0441V13.0421C44.6644 13.0441 44.6652 13.0441 44.6652 13.0441C44.6693 13.0454 44.6726 13.0479 44.6755 13.0479C45.4533 13.3511 46.1114 13.9114 46.5778 14.608C47.0451 15.3075 47.32 16.1453 47.32 17.0067C47.32 17.1654 47.3114 17.3245 47.2929 17.4836L47.2913 17.4869C47.2913 17.4894 47.2913 17.4927 47.2905 17.4952C47.199 18.6084 46.6423 19.5853 45.8538 20.2819C45.0603 20.9814 44.033 21.4038 42.9786 21.4038C42.8096 21.4038 42.639 21.3943 42.4691 21.3714C41.4234 21.2904 40.4482 20.7783 39.7319 20.0161C39.0131 19.2551 38.5499 18.2383 38.5499 17.1409C38.5499 17.0877 38.5549 17.0333 38.5565 16.9806C37.5748 16.5382 36.5323 16.171 35.4964 16.1718C35.3467 16.1718 35.1969 16.1802 35.0468 16.1955H35.0451C34.2693 16.2711 33.5485 16.7662 33.199 17.4782V17.479V17.4815C32.6685 18.5274 32.5627 19.7498 32.5467 20.9635C35.5202 21.16 38.5114 21.8823 41.1349 23.4092H41.1391L41.1768 23.4316C41.2265 23.4615 41.3188 23.5126 41.402 23.5575C41.5821 23.4096 41.7729 23.2572 41.9904 23.1259C42.7858 22.5897 43.7282 22.323 44.6706 22.323C45.0891 22.323 45.5079 22.377 45.9141 22.4825H45.9157L45.9325 22.4875C45.9382 22.4883 45.9428 22.4904 45.9477 22.4904V22.4912C46.9077 22.7384 47.7762 23.2967 48.4302 24.0493C49.0833 24.8032 49.5231 25.7569 49.6088 26.7924V26.7949H49.608ZM44.8035 32.4044C44.8035 31.0574 44.3235 29.7041 43.5464 28.6146C41.9969 26.4314 39.5928 25.0076 37.0923 24.2138L37.0746 24.2076C36.5946 24.0585 36.1098 23.9264 35.6212 23.8134C34.1598 23.4765 32.6611 23.3087 31.1645 23.3087C29.1542 23.3087 27.1444 23.6098 25.2199 24.2109C22.7198 25.0142 20.3079 26.4281 18.7617 28.6183V28.62C17.9781 29.7137 17.519 31.0715 17.519 32.4235C17.519 32.9211 17.5805 33.4188 17.7106 33.9031L17.7122 33.9039C17.9937 34.9905 18.5438 35.9608 19.2564 36.8061C19.9686 37.653 20.8421 38.3753 21.761 38.9647C21.9645 39.0922 22.1688 39.214 22.3781 39.3332C25.0472 40.8414 28.1208 41.5026 31.1723 41.5026C31.6884 41.5026 32.2074 41.4844 32.7202 41.4466C35.793 41.1899 38.879 40.2715 41.3734 38.3948L41.3741 38.3928C42.1684 37.7988 42.904 37.0794 43.4854 36.2611C44.0696 35.4428 44.4974 34.5274 44.6874 33.5338V33.5309L44.6882 33.5301C44.7658 33.1588 44.8035 32.7824 44.8035 32.4044ZM40.849 16.9419C40.849 16.9826 40.8498 17.0246 40.8539 17.067V17.0695V17.0744C40.8732 17.5974 41.1169 18.0842 41.4878 18.4439C41.8603 18.8036 42.3546 19.0262 42.8564 19.0283H42.863H42.8696C42.9057 19.0312 42.9426 19.0312 42.9778 19.0312C43.4841 19.0321 43.9866 18.8111 44.3641 18.4526C44.7423 18.0925 44.9914 17.6028 45.0115 17.0753L45.0123 17.0728V17.0695C45.0156 17.0292 45.0172 16.991 45.0172 16.9498C45.0172 16.4069 44.7666 15.8894 44.374 15.506C43.983 15.123 43.4566 14.8859 42.9373 14.8871C42.7699 14.8871 42.6041 14.9104 42.4412 14.9615L42.4363 14.9623L42.4314 14.9644C42.0035 15.077 41.6027 15.344 41.3143 15.6987C41.0246 16.0518 40.849 16.4879 40.849 16.9419ZM18.8995 25.0117C18.5019 24.8244 18.0908 24.6906 17.6847 24.6923C17.6166 24.6923 17.5477 24.6964 17.4796 24.7039H17.4702L17.4607 24.7051C16.8773 24.7213 16.2886 24.9789 15.8467 25.3918C15.4045 25.803 15.112 26.3583 15.0894 26.9706V26.9764L15.0886 26.9814C15.0845 27.0308 15.0829 27.0802 15.0829 27.1276C15.0829 27.5051 15.1973 27.8703 15.3914 28.2026C15.5349 28.4497 15.7233 28.6756 15.9362 28.8717C16.6181 27.3602 17.6831 26.0776 18.8995 25.0117ZM47.2289 27.0433C47.2281 26.7164 47.1543 26.3907 46.9926 26.0871L46.9885 26.0834L46.9869 26.0784C46.7707 25.6273 46.431 25.2867 46.0211 25.0545C45.6117 24.8211 45.1325 24.7018 44.6517 24.7018C44.2172 24.7018 43.7848 24.8003 43.4008 24.9955C44.6213 26.0684 45.6917 27.3577 46.3838 28.8751C46.6066 28.679 46.7965 28.4389 46.9385 28.1722C47.1239 27.8225 47.2289 27.4304 47.2289 27.0433ZM37.5326 34.7864C37.3455 34.6799 37.1291 34.6154 36.8998 34.6154C36.7151 34.6154 36.5231 34.6617 36.3526 34.7611C34.7383 35.607 32.8398 36.0702 30.9551 36.0702C29.5409 36.0702 28.1353 35.8083 26.8619 35.2592L26.8554 35.2564L26.8489 35.2543C26.6569 35.1855 26.4381 35.0387 26.1995 34.8994C26.0781 34.8306 25.9514 34.7618 25.811 34.7116C25.6722 34.6596 25.5183 34.6232 25.3535 34.6232C25.2171 34.6232 25.0739 34.6503 24.9326 34.7066C24.9253 34.7091 24.9184 34.7116 24.9111 34.7141H24.9119C24.6898 34.7886 24.5161 34.9247 24.4045 35.0861C24.288 35.2525 24.2308 35.4459 24.2308 35.6387C24.2308 35.8125 24.2774 35.9868 24.3745 36.1447C24.4666 36.2943 24.6083 36.425 24.7938 36.5127C26.6139 37.5905 28.7571 38.0787 30.9084 38.0769C32.8483 38.0769 34.7996 37.6828 36.5373 36.9652L36.5466 36.9603L36.5552 36.956C36.7841 36.8373 37.0885 36.7304 37.3755 36.5747C37.5176 36.4953 37.656 36.4037 37.7749 36.2843C37.8938 36.1657 37.9897 36.0192 38.0436 35.8461V35.8453C38.066 35.7691 38.0769 35.6943 38.0769 35.6202C38.0769 35.4784 38.0371 35.3441 37.9714 35.2233C37.8752 35.0419 37.7173 34.8926 37.5326 34.7864ZM24.9276 27.6923C23.9055 27.6923 23.0769 28.5174 23.0769 29.543V30.457C23.0769 31.4791 23.9021 32.3077 24.9276 32.3077H25.8417C26.8638 32.3077 27.6923 31.4826 27.6923 30.457V29.543C27.6923 28.5209 26.8672 27.6923 25.8417 27.6923H24.9276ZM36.4661 27.6923C35.444 27.6923 34.6154 28.5174 34.6154 29.543V30.457C34.6154 31.4791 35.4405 32.3077 36.4661 32.3077H37.3801C38.4022 32.3077 39.2308 31.4826 39.2308 30.457V29.543C39.2308 28.5209 38.4056 27.6923 37.3801 27.6923H36.4661Z" fill="white"/>
</svg>
