<svg width="60" height="60" viewBox="0 0 60 60" fill="none" xmlns="http://www.w3.org/2000/svg">
<path fill-rule="evenodd" clip-rule="evenodd" d="M2.99594 0H57.0041C58.6587 0 60 1.33731 60 2.99594V57.0041C60 58.6587 58.6627 60 57.0041 60H2.99594C1.34133 60 0 58.6627 0 57.0041V2.99594C0 1.34133 1.33731 0 2.99594 0Z" fill="#2D2D2D"/>
<path fill-rule="evenodd" clip-rule="evenodd" d="M41.0521 18.4367C39.8432 17.0622 38.1205 16.1865 36.2141 16.1547C32.5536 16.0938 29.5857 19.1869 29.5857 23.0631C29.5857 23.6132 29.6443 24.1497 29.7574 24.6647C24.2486 24.3073 19.3645 21.4388 16.0954 17.1147C15.5249 18.1509 15.1979 19.3619 15.1979 20.6591C15.1979 23.115 16.3681 25.2945 18.1466 26.5814C17.0601 26.5334 16.0381 26.2045 15.1444 25.6649C15.1438 25.6944 15.1438 25.7239 15.1438 25.754C15.1438 29.1835 17.4286 32.0607 20.4608 32.7309C19.9047 32.8885 19.3191 32.971 18.7146 32.967C18.2875 32.9642 17.8722 32.9168 17.4675 32.8318C18.3109 35.6444 20.7587 37.6968 23.6593 37.7646C21.3908 39.6477 18.5329 40.7692 15.4273 40.7628C14.8923 40.7617 14.3647 40.7271 13.8462 40.6606C16.7795 42.6733 20.2636 43.8452 24.0068 43.8461C36.1986 43.8493 42.8657 33.2395 42.8657 24.0368C42.8657 23.7348 42.8591 23.4345 42.8465 23.1356C44.1416 22.1707 45.2652 20.9608 46.1539 19.5792C44.9653 20.115 43.6876 20.4709 42.347 20.6201C43.7154 19.778 44.7666 18.4301 45.2614 16.8138C43.9805 17.5905 42.562 18.1475 41.0521 18.4367Z" fill="white"/>
</svg>
