<svg width="60" height="60" viewBox="0 0 60 60" fill="none" xmlns="http://www.w3.org/2000/svg">
<path fill-rule="evenodd" clip-rule="evenodd" d="M2.99593 0H57.0041C58.6587 0 60 1.33731 60 2.99594V57.0041C60 58.6587 58.6627 60 57.0041 60H2.99593C1.34132 60 0 58.6627 0 57.0041V2.99594C0 1.34133 1.33731 0 2.99593 0Z" fill="#2D2D2D"/>
<path fill-rule="evenodd" clip-rule="evenodd" d="M25.4622 47.3143V29.999H21.9433V24.2594H25.4622V20.7884C25.4622 16.1066 26.862 12.7306 31.9881 12.7306H38.0864V18.4584H33.7923C31.6419 18.4584 31.1519 19.8874 31.1519 21.3838V24.2594H37.7694L36.8662 29.999H31.1519V47.3143H25.4622Z" fill="white"/>
</svg>
