<svg width="60" height="60" viewBox="0 0 60 60" fill="none" xmlns="http://www.w3.org/2000/svg">
<path fill-rule="evenodd" clip-rule="evenodd" d="M2.99594 0H57.0041C58.6587 0 60 1.33731 60 2.99593V57.0041C60 58.6587 58.6627 60 57.0041 60H2.99594C1.34133 60 0 58.6627 0 57.0041V2.99593C0 1.34132 1.33731 0 2.99594 0Z" fill="#2D2D2D"/>
<path fill-rule="evenodd" clip-rule="evenodd" d="M19.3561 14H40.6439C43.602 14 46 16.4052 46 19.3561V40.6439C46 43.602 43.5948 46 40.6439 46H19.3561C16.398 46 14 43.5948 14 40.6439V19.3561C14 16.398 16.4052 14 19.3561 14ZM38.9468 27.3333H43.3333V40.6439C43.3333 42.1262 42.1251 43.3333 40.6439 43.3333H19.3561C17.8738 43.3333 16.6667 42.1251 16.6667 40.6439V27.3333H21.0532C20.8017 28.1783 20.6667 29.0734 20.6667 30C20.6667 35.1547 24.8453 39.3333 30 39.3333C35.1547 39.3333 39.3333 35.1547 39.3333 30C39.3333 29.0734 39.1983 28.1783 38.9468 27.3333ZM30 36.6667C33.6819 36.6667 36.6667 33.6819 36.6667 30C36.6667 26.3181 33.6819 23.3333 30 23.3333C26.3181 23.3333 23.3333 26.3181 23.3333 30C23.3333 33.6819 26.3181 36.6667 30 36.6667ZM35.3333 17.9877C35.3333 17.2581 35.9087 16.6667 36.6544 16.6667H42.0123C42.7419 16.6667 43.3333 17.242 43.3333 17.9877V23.3456C43.3333 24.0752 42.758 24.6667 42.0123 24.6667H36.6544C35.9248 24.6667 35.3333 24.0913 35.3333 23.3456V17.9877Z" fill="white"/>
</svg>
