<svg width="60" height="60" viewBox="0 0 60 60" fill="none" xmlns="http://www.w3.org/2000/svg">
<path fill-rule="evenodd" clip-rule="evenodd" d="M2.99593 0H57.0041C58.6587 0 60 1.33731 60 2.99594V57.0041C60 58.6587 58.6627 60 57.0041 60H2.99593C1.34132 60 0 58.6627 0 57.0041V2.99594C0 1.34133 1.33731 0 2.99593 0Z" fill="#2D2D2D"/>
<path d="M47.8974 17.7311L42.4648 43.1891C42.0549 44.9858 40.986 45.4329 39.4671 44.5867L31.1896 38.5255L27.1956 42.3427C26.7536 42.7818 26.3839 43.1493 25.5321 43.1493L26.1267 34.7722L41.4683 20.9971C42.1353 20.4063 41.3237 20.0788 40.4316 20.6697L21.4656 32.5362L13.3006 29.9969C11.5245 29.4459 11.4924 28.232 13.6702 27.3856L45.607 15.1598C47.0856 14.6088 48.3796 15.4871 47.8974 17.7311Z" fill="white"/>
</svg>
