<svg width="60" height="60" viewBox="0 0 60 60" fill="none" xmlns="http://www.w3.org/2000/svg">
<path fill-rule="evenodd" clip-rule="evenodd" d="M2.99594 0H57.0041C58.6587 0 60 1.33731 60 2.99593V57.0041C60 58.6587 58.6627 60 57.0041 60H2.99594C1.34133 60 0 58.6627 0 57.0041V2.99593C0 1.34132 1.33731 0 2.99594 0Z" fill="#2D2D2D"/>
<path fill-rule="evenodd" clip-rule="evenodd" d="M49.2158 22.0687C49.2158 22.0687 48.8408 19.4261 47.6908 18.262C46.2331 16.7349 44.5983 16.7276 43.8488 16.6382C38.4825 16.25 30.4327 16.25 30.4327 16.25H30.4157C30.4157 16.25 22.3664 16.25 16.9997 16.6382C16.2502 16.7276 14.6161 16.7349 13.1576 18.262C12.0076 19.4261 11.6335 22.0687 11.6335 22.0687C11.6335 22.0687 11.25 25.172 11.25 28.2752V31.185C11.25 34.2878 11.6335 37.3911 11.6335 37.3911C11.6335 37.3911 12.0076 40.0337 13.1576 41.1978C14.6161 42.7253 16.5323 42.6763 17.3857 42.8365C20.454 43.131 30.4242 43.2222 30.4242 43.2222C30.4242 43.2222 38.4825 43.2098 43.8488 42.8221C44.5983 42.7326 46.2331 42.7253 47.6908 41.1978C48.8408 40.0337 49.2158 37.3911 49.2158 37.3911C49.2158 37.3911 49.5984 34.2878 49.5984 31.185V28.2752C49.5984 25.172 49.2158 22.0687 49.2158 22.0687ZM26.4654 34.7101L26.4637 23.9355L36.8254 29.3413L26.4654 34.7101Z" fill="white"/>
</svg>
