<svg width="48" height="48" viewBox="0 0 48 48" fill="none" xmlns="http://www.w3.org/2000/svg">
<path d="M10 30V24H16V20H10V14H6V20H0V24H6V30H10ZM24 27.5C19.32 27.5 10 29.84 10 34.5V38H38V34.5C38 29.84 28.68 27.5 24 27.5ZM14.68 34C16.36 32.84 20.42 31.5 24 31.5C27.58 31.5 31.64 32.84 33.32 34H14.68ZM24 24C27.86 24 31 20.86 31 17C31 13.14 27.86 10 24 10C20.14 10 17 13.14 17 17C17 20.86 20.14 24 24 24ZM24 14C25.66 14 27 15.34 27 17C27 18.66 25.66 20 24 20C22.34 20 21 18.66 21 17C21 15.34 22.34 14 24 14ZM34 24C37.86 24 41 20.86 41 17C41 13.14 37.86 10 34 10C33.52 10 33.04 10.04 32.58 10.14C34.1 12.02 35 14.4 35 17C35 19.6 34.06 21.96 32.54 23.84C33.02 23.94 33.5 24 34 24ZM38.64 28.04C40.64 29.66 42 31.78 42 34.5V38H48V34.5C48 31.12 43.12 28.98 38.64 28.04Z" fill="#00F47F"/>
</svg>
