<svg width="801" height="425" viewBox="0 0 801 425" fill="none" xmlns="http://www.w3.org/2000/svg">
<path d="M22.2941 243.559C35.8335 257.102 57.7767 257.102 71.3161 243.559C84.8555 230.016 84.8555 208.067 71.3161 194.524" stroke="white" stroke-width="2" stroke-miterlimit="10" stroke-linecap="round" stroke-linejoin="round" stroke-dasharray="5 5"/>
<path d="M22.2941 194.513C8.75473 208.056 8.75473 230.005 22.2941 243.548" stroke="white" stroke-width="2" stroke-miterlimit="10" stroke-linecap="round" stroke-linejoin="round"/>
<path d="M71.3162 194.513C70.6901 193.887 70.0323 193.282 69.3744 192.709" stroke="white" stroke-width="2" stroke-linecap="round" stroke-linejoin="round"/>
<path d="M64.9602 189.493C53.0867 182.18 37.7647 182.69 26.3793 191.011" stroke="white" stroke-width="2" stroke-linecap="round" stroke-linejoin="round" stroke-dasharray="5.14 5.14"/>
<path d="M24.2359 192.709C23.5674 193.282 22.9202 193.887 22.2941 194.513" stroke="white" stroke-width="2" stroke-linecap="round" stroke-linejoin="round"/>
<path d="M191.77 218.776H189.118" stroke="white" stroke-width="2" stroke-linecap="round" stroke-linejoin="round"/>
<path d="M183.589 218.776H86.8822" stroke="white" stroke-width="2" stroke-linecap="round" stroke-linejoin="round" stroke-dasharray="5.21 5.21"/>
<path d="M84.1234 218.777H81.4707" stroke="white" stroke-width="2" stroke-linecap="round" stroke-linejoin="round"/>
<path d="M47.5903 253.791V256.443" stroke="white" stroke-width="2" stroke-linecap="round" stroke-linejoin="round"/>
<path d="M47.5903 261.401V328.267" stroke="white" stroke-width="2" stroke-linecap="round" stroke-linejoin="round" stroke-dasharray="4.67 4.67"/>
<path d="M47.5903 330.751V333.403" stroke="white" stroke-width="2" stroke-linecap="round" stroke-linejoin="round"/>
<path d="M765.519 253.801V256.454" stroke="white" stroke-width="2" stroke-linecap="round" stroke-linejoin="round"/>
<path d="M765.519 261.974V336.482" stroke="white" stroke-width="2" stroke-linecap="round" stroke-linejoin="round" stroke-dasharray="5.2 5.2"/>
<path d="M765.519 339.241V341.894" stroke="white" stroke-width="2" stroke-linecap="round" stroke-linejoin="round"/>
<path d="M604.457 237.541C603.821 238.178 603.173 238.772 602.494 239.324" stroke="white" stroke-width="2" stroke-linecap="round" stroke-linejoin="round"/>
<path d="M598.176 242.199C589.644 246.753 579.15 246.307 571.001 240.862" stroke="white" stroke-width="2" stroke-linecap="round" stroke-linejoin="round" stroke-dasharray="4.89 4.89"/>
<path d="M568.911 239.313C568.232 238.761 567.574 238.167 566.948 237.531" stroke="white" stroke-width="2" stroke-linecap="round" stroke-linejoin="round"/>
<path d="M566.948 237.541C556.592 227.182 556.592 210.381 566.948 200.011C577.304 189.652 594.101 189.652 604.468 200.011C614.824 210.37 614.824 227.172 604.468 237.541" stroke="white" stroke-width="2" stroke-miterlimit="10" stroke-linecap="round" stroke-linejoin="round"/>
<path d="M746.759 387.194C736.403 376.835 736.403 360.034 746.759 349.664" stroke="white" stroke-width="2" stroke-miterlimit="10" stroke-linecap="round" stroke-linejoin="round"/>
<path d="M746.759 349.664C747.395 349.027 748.043 348.433 748.722 347.881" stroke="white" stroke-width="2" stroke-linecap="round" stroke-linejoin="round"/>
<path d="M753.051 344.994C763.078 339.645 775.822 341.205 784.279 349.664C794.635 360.023 794.635 376.825 784.279 387.194C775.185 396.29 761.126 397.405 750.823 390.527" stroke="white" stroke-width="2" stroke-linecap="round" stroke-linejoin="round" stroke-dasharray="4.9 4.9"/>
<path d="M748.732 388.966C748.053 388.415 747.396 387.821 746.77 387.184" stroke="white" stroke-width="2" stroke-linecap="round" stroke-linejoin="round"/>
<path d="M387.317 349.664C397.673 339.305 414.47 339.305 424.837 349.664" stroke="white" stroke-width="2" stroke-miterlimit="10" stroke-linecap="round" stroke-linejoin="round"/>
<path d="M424.826 349.664C425.463 350.301 426.057 350.948 426.609 351.627" stroke="white" stroke-width="2" stroke-linecap="round" stroke-linejoin="round"/>
<path d="M429.495 355.958C434.843 365.988 433.283 378.735 424.826 387.194C414.47 397.553 397.673 397.553 387.307 387.194C378.213 378.098 377.099 364.035 383.975 353.729" stroke="white" stroke-width="2" stroke-linecap="round" stroke-linejoin="round" stroke-dasharray="4.9 4.9"/>
<path d="M385.535 351.627C386.086 350.948 386.681 350.29 387.317 349.664" stroke="white" stroke-width="2" stroke-linecap="round" stroke-linejoin="round"/>
<path d="M740.828 243.56C741.454 244.186 742.111 244.791 742.769 245.364" stroke="white" stroke-width="2" stroke-linecap="round" stroke-linejoin="round"/>
<path d="M747.173 248.579C759.046 255.892 774.368 255.382 785.754 247.061" stroke="white" stroke-width="2" stroke-linecap="round" stroke-linejoin="round" stroke-dasharray="5.14 5.14"/>
<path d="M787.908 245.363C788.576 244.79 789.223 244.186 789.85 243.56" stroke="white" stroke-width="2" stroke-linecap="round" stroke-linejoin="round"/>
<path d="M740.828 194.514C727.288 208.057 727.288 230.006 740.828 243.549" stroke="white" stroke-width="2" stroke-miterlimit="10" stroke-linecap="round" stroke-linejoin="round"/>
<path d="M789.85 243.559C790.476 242.933 791.08 242.275 791.653 241.617" stroke="white" stroke-width="2" stroke-linecap="round" stroke-linejoin="round"/>
<path d="M794.869 237.213C803.103 223.85 801.426 206.104 789.85 194.524C777.605 182.276 758.473 181.109 744.913 191.022" stroke="white" stroke-width="2" stroke-linecap="round" stroke-linejoin="round" stroke-dasharray="5.14 5.14"/>
<path d="M742.769 192.71C742.101 193.283 741.454 193.887 740.828 194.514" stroke="white" stroke-width="2" stroke-linecap="round" stroke-linejoin="round"/>
<path d="M695.88 22.3063C695.254 21.6802 694.596 21.0754 693.938 20.5024" stroke="white" stroke-width="2" stroke-linecap="round" stroke-linejoin="round"/>
<path d="M689.535 17.2758C676.176 9.03957 658.434 10.7165 646.858 22.296C634.613 34.5442 633.446 53.6807 643.356 67.2449" stroke="white" stroke-width="2" stroke-linecap="round" stroke-linejoin="round" stroke-dasharray="5.14 5.14"/>
<path d="M645.054 69.3889C645.627 70.0574 646.232 70.7047 646.858 71.3307" stroke="white" stroke-width="2" stroke-linecap="round" stroke-linejoin="round"/>
<path d="M695.88 71.3417C696.506 70.7156 697.111 70.0578 697.684 69.3999" stroke="white" stroke-width="2" stroke-linecap="round" stroke-linejoin="round"/>
<path d="M700.909 64.9844C708.22 53.1077 707.711 37.7815 699.392 26.3931" stroke="white" stroke-width="2" stroke-linecap="round" stroke-linejoin="round" stroke-dasharray="5.14 5.14"/>
<path d="M697.684 24.2484C697.111 23.5799 696.506 22.9327 695.88 22.3066" stroke="white" stroke-width="2" stroke-linecap="round" stroke-linejoin="round"/>
<path d="M646.858 71.3418C660.397 84.8849 682.341 84.8849 695.88 71.3418" stroke="white" stroke-width="2" stroke-miterlimit="10" stroke-linecap="round" stroke-linejoin="round"/>
<path d="M610.219 343.996C609.593 343.37 608.935 342.765 608.277 342.192" stroke="white" stroke-width="2" stroke-linecap="round" stroke-linejoin="round"/>
<path d="M603.863 338.965C591.989 331.652 576.667 332.162 565.282 340.483" stroke="white" stroke-width="2" stroke-linecap="round" stroke-linejoin="round" stroke-dasharray="5.14 5.14"/>
<path d="M563.139 342.192C562.47 342.765 561.823 343.37 561.197 343.996" stroke="white" stroke-width="2" stroke-linecap="round" stroke-linejoin="round"/>
<path d="M610.219 393.031C623.758 379.488 623.758 357.539 610.219 343.996" stroke="white" stroke-width="2" stroke-miterlimit="10" stroke-linecap="round" stroke-linejoin="round"/>
<path d="M561.197 343.996C547.657 357.539 547.657 379.488 561.197 393.031C574.736 406.574 596.679 406.574 610.219 393.031" stroke="white" stroke-width="2" stroke-miterlimit="10" stroke-linecap="round" stroke-linejoin="round"/>
<path d="M585.708 245.311V333.404" stroke="white" stroke-width="2" stroke-miterlimit="10" stroke-linecap="round" stroke-linejoin="round" stroke-dasharray="5 5"/>
<path d="M47.5903 256.975C49.3484 256.975 50.7736 255.55 50.7736 253.791C50.7736 252.032 49.3484 250.607 47.5903 250.607C45.8323 250.607 44.4071 252.032 44.4071 253.791C44.4071 255.55 45.8323 256.975 47.5903 256.975Z" stroke="white" stroke-width="2" stroke-miterlimit="10" stroke-linecap="round" stroke-linejoin="round"/>
<path d="M250.947 343.996C237.407 330.453 215.464 330.453 201.925 343.996C188.385 357.539 188.385 379.488 201.925 393.031" stroke="white" stroke-width="2" stroke-miterlimit="10" stroke-linecap="round" stroke-linejoin="round"/>
<path d="M201.925 393.032C202.551 393.658 203.209 394.263 203.867 394.836" stroke="white" stroke-width="2" stroke-linecap="round" stroke-linejoin="round"/>
<path d="M208.27 398.052C221.629 406.288 239.37 404.611 250.947 393.031C263.192 380.783 264.359 361.647 254.448 348.083" stroke="white" stroke-width="2" stroke-linecap="round" stroke-linejoin="round" stroke-dasharray="5.14 5.14"/>
<path d="M252.751 345.938C252.178 345.27 251.573 344.622 250.947 343.996" stroke="white" stroke-width="2" stroke-linecap="round" stroke-linejoin="round"/>
<path d="M201.925 243.559C215.464 257.102 237.407 257.102 250.947 243.559C264.486 230.016 264.486 208.067 250.947 194.524" stroke="white" stroke-width="2" stroke-miterlimit="10" stroke-linecap="round" stroke-linejoin="round"/>
<path d="M201.925 194.513C201.299 195.139 200.694 195.797 200.121 196.455" stroke="white" stroke-width="2" stroke-linecap="round" stroke-linejoin="round"/>
<path d="M196.895 200.871C189.584 212.747 190.094 228.073 198.413 239.462" stroke="white" stroke-width="2" stroke-linecap="round" stroke-linejoin="round" stroke-dasharray="5.14 5.14"/>
<path d="M200.121 241.606C200.694 242.274 201.299 242.922 201.925 243.548" stroke="white" stroke-width="2" stroke-linecap="round" stroke-linejoin="round"/>
<path d="M250.947 194.513C237.407 180.97 215.464 180.97 201.925 194.513" stroke="white" stroke-width="2" stroke-miterlimit="10" stroke-linecap="round" stroke-linejoin="round"/>
<path d="M22.2941 393.031C35.8335 406.574 57.7767 406.574 71.3161 393.031C84.8555 379.488 84.8555 357.539 71.3161 343.996" stroke="white" stroke-width="2" stroke-miterlimit="10" stroke-linecap="round" stroke-linejoin="round"/>
<path d="M22.2941 343.996C8.75473 357.539 8.75473 379.488 22.2941 393.031" stroke="white" stroke-width="2" stroke-miterlimit="10" stroke-linecap="round" stroke-linejoin="round"/>
<path d="M71.3162 343.996C70.6901 343.37 70.0323 342.765 69.3744 342.192" stroke="white" stroke-width="2" stroke-linecap="round" stroke-linejoin="round"/>
<path d="M64.9602 338.965C53.0867 331.652 37.7647 332.162 26.3793 340.483" stroke="white" stroke-width="2" stroke-linecap="round" stroke-linejoin="round" stroke-dasharray="5.14 5.14"/>
<path d="M24.2359 342.192C23.5674 342.765 22.9202 343.37 22.2941 343.996" stroke="white" stroke-width="2" stroke-linecap="round" stroke-linejoin="round"/>
<path d="M191.77 221.961C193.528 221.961 194.954 220.535 194.954 218.776C194.954 217.018 193.528 215.592 191.77 215.592C190.012 215.592 188.587 217.018 188.587 218.776C188.587 220.535 190.012 221.961 191.77 221.961Z" fill="#161D35" stroke="white" stroke-width="2" stroke-miterlimit="10" stroke-linecap="round" stroke-linejoin="round"/>
<path d="M81.4707 221.961C83.2288 221.961 84.654 220.535 84.654 218.776C84.654 217.018 83.2288 215.592 81.4707 215.592C79.7127 215.592 78.2875 217.018 78.2875 218.776C78.2875 220.535 79.7127 221.961 81.4707 221.961Z" fill="#161D35" stroke="white" stroke-width="2" stroke-miterlimit="10" stroke-linecap="round" stroke-linejoin="round"/>
<path d="M585.708 336.588C587.466 336.588 588.891 335.162 588.891 333.404C588.891 331.645 587.466 330.22 585.708 330.22C583.95 330.22 582.525 331.645 582.525 333.404C582.525 335.162 583.95 336.588 585.708 336.588Z" fill="#161D35" stroke="white" stroke-width="2" stroke-miterlimit="10" stroke-linecap="round" stroke-linejoin="round"/>
<path d="M585.708 248.494C587.466 248.494 588.891 247.069 588.891 245.31C588.891 243.552 587.466 242.126 585.708 242.126C583.95 242.126 582.525 243.552 582.525 245.31C582.525 247.069 583.95 248.494 585.708 248.494Z" fill="#161D35" stroke="white" stroke-width="2" stroke-miterlimit="10" stroke-linecap="round" stroke-linejoin="round"/>
<path d="M765.519 345.079C767.277 345.079 768.702 343.654 768.702 341.895C768.702 340.137 767.277 338.711 765.519 338.711C763.761 338.711 762.336 340.137 762.336 341.895C762.336 343.654 763.761 345.079 765.519 345.079Z" fill="#161D35" stroke="white" stroke-width="2" stroke-miterlimit="10" stroke-linecap="round" stroke-linejoin="round"/>
<path d="M765.519 256.986C767.277 256.986 768.702 255.56 768.702 253.802C768.702 252.043 767.277 250.617 765.519 250.617C763.761 250.617 762.336 252.043 762.336 253.802C762.336 255.56 763.761 256.986 765.519 256.986Z" fill="#161D35" stroke="white" stroke-width="2" stroke-miterlimit="10" stroke-linecap="round" stroke-linejoin="round"/>
<path d="M402.883 81.3824H371.518V12.2556H440.626V81.3824H409.25" stroke="white" stroke-width="2" stroke-miterlimit="10" stroke-linecap="round" stroke-linejoin="round"/>
<path d="M47.5903 336.588C49.3484 336.588 50.7736 335.162 50.7736 333.404C50.7736 331.645 49.3484 330.22 47.5903 330.22C45.8323 330.22 44.4071 331.645 44.4071 333.404C44.4071 335.162 45.8323 336.588 47.5903 336.588Z" stroke="white" stroke-width="2" stroke-miterlimit="10" stroke-linecap="round" stroke-linejoin="round"/>
</svg>
