<svg width="800" height="425" viewBox="0 0 800 425" fill="none" xmlns="http://www.w3.org/2000/svg">
<path d="M670.775 82.1125V202.153" stroke="#69BFAD" stroke-width="2" stroke-miterlimit="10" stroke-linecap="round" stroke-linejoin="round"/>
<path d="M225.842 276.449V257.344" stroke="#69BFAD" stroke-width="2" stroke-miterlimit="10" stroke-linecap="round" stroke-linejoin="round"/>
<path d="M225.842 333.763V311.474" stroke="#69BFAD" stroke-width="2" stroke-miterlimit="10" stroke-linecap="round" stroke-linejoin="round"/>
<path d="M118.513 368.788H84.0601" stroke="#69BFAD" stroke-width="2" stroke-miterlimit="10" stroke-linecap="round" stroke-linejoin="round"/>
<path d="M187.993 368.788H153.529" stroke="#69BFAD" stroke-width="2" stroke-miterlimit="10" stroke-linecap="round" stroke-linejoin="round"/>
<path d="M653.267 219.666L611.641 219.135" stroke="#69BFAD" stroke-width="2" stroke-miterlimit="10" stroke-linecap="round" stroke-linejoin="round"/>
<path d="M729.909 219.135L688.283 219.666" stroke="#69BFAD" stroke-width="2" stroke-miterlimit="10" stroke-linecap="round" stroke-linejoin="round"/>
<path d="M661.575 368.788H619.779" stroke="#69BFAD" stroke-width="2" stroke-miterlimit="10" stroke-linecap="round" stroke-linejoin="round"/>
<path d="M738.398 368.788H696.591" stroke="#69BFAD" stroke-width="2" stroke-miterlimit="10" stroke-linecap="round" stroke-linejoin="round"/>
<path d="M225.842 311.474C235.511 311.474 243.35 303.633 243.35 293.961C243.35 284.289 235.511 276.449 225.842 276.449C216.173 276.449 208.334 284.289 208.334 293.961C208.334 303.633 216.173 311.474 225.842 311.474Z" stroke="#69BFAD" stroke-width="2" stroke-miterlimit="10" stroke-linecap="round" stroke-linejoin="round"/>
<path d="M218.828 300.86H221.513L225.545 293.951L221.523 287.062H218.902L222.86 293.951L218.828 300.86Z" fill="#69BFAD" stroke="#69BFAD" stroke-width="0.75" stroke-miterlimit="10" stroke-linecap="round" stroke-linejoin="round"/>
<path d="M136.021 385.77C145.691 385.77 153.529 377.929 153.529 368.257C153.529 358.585 145.691 350.745 136.021 350.745C126.352 350.745 118.513 358.585 118.513 368.257C118.513 377.929 126.352 385.77 136.021 385.77Z" stroke="#69BFAD" stroke-width="2" stroke-miterlimit="10" stroke-linecap="round" stroke-linejoin="round"/>
<path d="M129.008 374.626H131.703L135.724 367.716L131.703 360.828H129.082L133.04 367.716L129.008 374.626Z" fill="#69BFAD" stroke="#69BFAD" stroke-width="0.75" stroke-miterlimit="10" stroke-linecap="round" stroke-linejoin="round"/>
<path d="M670.775 237.178C680.444 237.178 688.283 229.338 688.283 219.666C688.283 209.994 680.444 202.153 670.775 202.153C661.106 202.153 653.267 209.994 653.267 219.666C653.267 229.338 661.106 237.178 670.775 237.178Z" stroke="#69BFAD" stroke-width="2" stroke-miterlimit="10" stroke-linecap="round" stroke-linejoin="round"/>
<path d="M663.761 226.565H666.446L670.478 219.655L666.456 212.767H663.836L667.783 219.655L663.761 226.565Z" fill="#69BFAD" stroke="#69BFAD" stroke-width="0.75" stroke-miterlimit="10" stroke-linecap="round" stroke-linejoin="round"/>
<path d="M679.083 385.77C688.753 385.77 696.591 377.929 696.591 368.257C696.591 358.585 688.753 350.745 679.083 350.745C669.414 350.745 661.575 358.585 661.575 368.257C661.575 377.929 669.414 385.77 679.083 385.77Z" stroke="#69BFAD" stroke-width="2" stroke-miterlimit="10" stroke-linecap="round" stroke-linejoin="round"/>
<path d="M672.07 374.626H674.765L678.786 367.716L674.765 360.828H672.144L676.102 367.716L672.07 374.626Z" fill="#69BFAD" stroke="#69BFAD" stroke-width="0.75" stroke-miterlimit="10" stroke-linecap="round" stroke-linejoin="round"/>
<path d="M670.775 85.2967C672.533 85.2967 673.958 83.8711 673.958 82.1126C673.958 80.354 672.533 78.9285 670.775 78.9285C669.017 78.9285 667.592 80.354 667.592 82.1126C667.592 83.8711 669.017 85.2967 670.775 85.2967Z" fill="#161D35" stroke="#69BFAD" stroke-width="2" stroke-miterlimit="10" stroke-linecap="round" stroke-linejoin="round"/>
<path d="M738.398 371.972C740.156 371.972 741.581 370.546 741.581 368.788C741.581 367.029 740.156 365.604 738.398 365.604C736.64 365.604 735.214 367.029 735.214 368.788C735.214 370.546 736.64 371.972 738.398 371.972Z" fill="#161D35" stroke="#69BFAD" stroke-width="2" stroke-miterlimit="10" stroke-linecap="round" stroke-linejoin="round"/>
<path d="M619.779 371.972C621.537 371.972 622.963 370.546 622.963 368.788C622.963 367.029 621.537 365.604 619.779 365.604C618.021 365.604 616.596 367.029 616.596 368.788C616.596 370.546 618.021 371.972 619.779 371.972Z" fill="#161D35" stroke="#69BFAD" stroke-width="2" stroke-miterlimit="10" stroke-linecap="round" stroke-linejoin="round"/>
<path d="M191.176 371.972C192.934 371.972 194.36 370.546 194.36 368.788C194.36 367.029 192.934 365.604 191.176 365.604C189.418 365.604 187.993 367.029 187.993 368.788C187.993 370.546 189.418 371.972 191.176 371.972Z" fill="#161D35" stroke="#69BFAD" stroke-width="2" stroke-miterlimit="10" stroke-linecap="round" stroke-linejoin="round"/>
<path d="M80.8769 371.972C82.6349 371.972 84.0601 370.546 84.0601 368.788C84.0601 367.029 82.6349 365.604 80.8769 365.604C79.1188 365.604 77.6936 367.029 77.6936 368.788C77.6936 370.546 79.1188 371.972 80.8769 371.972Z" fill="#161D35" stroke="#69BFAD" stroke-width="2" stroke-miterlimit="10" stroke-linecap="round" stroke-linejoin="round"/>
<path d="M729.909 222.319C731.667 222.319 733.092 220.894 733.092 219.135C733.092 217.377 731.667 215.951 729.909 215.951C728.151 215.951 726.726 217.377 726.726 219.135C726.726 220.894 728.151 222.319 729.909 222.319Z" fill="#161D35" stroke="#69BFAD" stroke-width="2" stroke-miterlimit="10" stroke-linecap="round" stroke-linejoin="round"/>
<path d="M225.842 257.344C227.6 257.344 229.025 255.919 229.025 254.16C229.025 252.402 227.6 250.976 225.842 250.976C224.084 250.976 222.659 252.402 222.659 254.16C222.659 255.919 224.084 257.344 225.842 257.344Z" fill="#161D35" stroke="#69BFAD" stroke-width="2" stroke-miterlimit="10" stroke-linecap="round" stroke-linejoin="round"/>
<path d="M225.842 336.947C227.6 336.947 229.025 335.521 229.025 333.763C229.025 332.004 227.6 330.579 225.842 330.579C224.084 330.579 222.659 332.004 222.659 333.763C222.659 335.521 224.084 336.947 225.842 336.947Z" fill="#161D35" stroke="#69BFAD" stroke-width="2" stroke-miterlimit="10" stroke-linecap="round" stroke-linejoin="round"/>
<path d="M143.014 360.828H140.329L138.685 363.683L140.022 366.007L143.014 360.828Z" stroke="white" stroke-width="0.75" stroke-miterlimit="10" stroke-linecap="round" stroke-linejoin="round"/>
<path d="M135.745 367.716L131.713 374.625H134.408L138.398 367.716L134.419 360.828H131.724L135.745 367.716Z" stroke="white" stroke-width="0.75" stroke-miterlimit="10" stroke-linecap="round" stroke-linejoin="round"/>
<path d="M143.046 375.687L140.022 370.454L138.685 372.778L140.361 375.687H143.046Z" stroke="white" stroke-width="0.75" stroke-miterlimit="10" stroke-linecap="round" stroke-linejoin="round"/>
<path d="M232.834 287.063H230.15L228.495 289.918L229.842 292.242L232.834 287.063Z" stroke="white" stroke-width="0.75" stroke-miterlimit="10" stroke-linecap="round" stroke-linejoin="round"/>
<path d="M225.566 293.951L221.534 300.86H224.229L228.219 293.951L224.229 287.063H221.545L225.566 293.951Z" stroke="white" stroke-width="0.75" stroke-miterlimit="10" stroke-linecap="round" stroke-linejoin="round"/>
<path d="M232.856 300.86L229.842 295.627L228.495 297.952L230.171 300.86H232.856Z" stroke="white" stroke-width="0.75" stroke-miterlimit="10" stroke-linecap="round" stroke-linejoin="round"/>
<path d="M677.767 212.767H675.083L673.428 215.622L674.775 217.946L677.767 212.767Z" stroke="white" stroke-width="0.75" stroke-miterlimit="10" stroke-linecap="round" stroke-linejoin="round"/>
<path d="M670.499 219.655L666.467 226.565H669.152L673.152 219.655L669.162 212.767H666.478L670.499 219.655Z" stroke="white" stroke-width="0.75" stroke-miterlimit="10" stroke-linecap="round" stroke-linejoin="round"/>
<path d="M677.789 226.565L674.775 221.332L673.428 223.656L675.104 226.565H677.789Z" stroke="white" stroke-width="0.75" stroke-miterlimit="10" stroke-linecap="round" stroke-linejoin="round"/>
<path d="M686.076 360.828H683.391L681.747 363.683L683.084 366.007L686.076 360.828Z" stroke="white" stroke-width="0.75" stroke-miterlimit="10" stroke-linecap="round" stroke-linejoin="round"/>
<path d="M678.807 367.716L674.786 374.625H677.47L681.46 367.716L677.481 360.828H674.786L678.807 367.716Z" stroke="white" stroke-width="0.75" stroke-miterlimit="10" stroke-linecap="round" stroke-linejoin="round"/>
<path d="M686.108 375.687L683.084 370.454L681.747 372.778L683.423 375.687H686.108Z" stroke="white" stroke-width="0.75" stroke-miterlimit="10" stroke-linecap="round" stroke-linejoin="round"/>
<path d="M611.641 222.319C613.399 222.319 614.825 220.894 614.825 219.135C614.825 217.377 613.399 215.951 611.641 215.951C609.883 215.951 608.458 217.377 608.458 219.135C608.458 220.894 609.883 222.319 611.641 222.319Z" fill="#161D35" stroke="#69BFAD" stroke-width="2" stroke-miterlimit="10" stroke-linecap="round" stroke-linejoin="round"/>
</svg>
