<svg width="800" height="425" viewBox="0 0 800 425" fill="none" xmlns="http://www.w3.org/2000/svg">
<path d="M458.59 219.042C458.59 190.024 435.076 166.504 406.066 166.504C377.057 166.504 353.543 190.024 353.543 219.042" stroke="#37BFF0" stroke-width="2" stroke-miterlimit="10" stroke-linecap="round" stroke-linejoin="round"/>
<path d="M353.543 219.042C353.543 248.06 377.057 271.58 406.066 271.58C435.076 271.58 458.59 248.06 458.59 219.042" stroke="#37BFF0" stroke-width="2" stroke-miterlimit="10" stroke-linecap="round" stroke-linejoin="round"/>
<path d="M386.352 238.677H394.002L405.472 219.01L394.034 199.407H386.564L397.822 219.01L386.352 238.677Z" fill="#37BFF0" stroke="#37BFF0" stroke-miterlimit="10" stroke-linecap="round" stroke-linejoin="round"/>
<path d="M559.977 215.593H458.59" stroke="#37BFF0" stroke-width="2" stroke-miterlimit="10" stroke-linecap="round" stroke-linejoin="round"/>
<path d="M559.977 221.961H458.59" stroke="#37BFF0" stroke-width="2" stroke-miterlimit="10" stroke-linecap="round" stroke-linejoin="round"/>
<path d="M563.902 342.097L443.045 256.827" stroke="#37BFF0" stroke-width="2" stroke-miterlimit="10" stroke-linecap="round" stroke-linejoin="round"/>
<path d="M458.59 221.961C460.348 221.961 461.773 220.535 461.773 218.777C461.773 217.018 460.348 215.593 458.59 215.593C456.832 215.593 455.407 217.018 455.407 218.777C455.407 220.535 456.832 221.961 458.59 221.961Z" fill="#161D35" stroke="#37BFF0" stroke-width="2" stroke-miterlimit="10" stroke-linecap="round" stroke-linejoin="round"/>
<path d="M563.902 345.281C565.661 345.281 567.086 343.855 567.086 342.097C567.086 340.338 565.661 338.913 563.902 338.913C562.144 338.913 560.719 340.338 560.719 342.097C560.719 343.855 562.144 345.281 563.902 345.281Z" fill="#161D35" stroke="#37BFF0" stroke-width="2" stroke-miterlimit="10" stroke-linecap="round" stroke-linejoin="round"/>
<path d="M443.045 260.011C444.803 260.011 446.228 258.585 446.228 256.826C446.228 255.068 444.803 253.642 443.045 253.642C441.287 253.642 439.862 255.068 439.862 256.826C439.862 258.585 441.287 260.011 443.045 260.011Z" fill="#161D35" stroke="#37BFF0" stroke-width="2" stroke-miterlimit="10" stroke-linecap="round" stroke-linejoin="round"/>
<path d="M559.181 221.961C560.939 221.961 562.364 220.535 562.364 218.777C562.364 217.018 560.939 215.593 559.181 215.593C557.423 215.593 555.997 217.018 555.997 218.777C555.997 220.535 557.423 221.961 559.181 221.961Z" fill="#161D35" stroke="#37BFF0" stroke-width="2" stroke-miterlimit="10" stroke-linecap="round" stroke-linejoin="round"/>
<path d="M353.543 216.654H260.995" stroke="#37BFF0" stroke-width="2" stroke-miterlimit="10" stroke-linecap="round" stroke-linejoin="round"/>
<path d="M353.543 223.022H260.995" stroke="#37BFF0" stroke-width="2" stroke-miterlimit="10" stroke-linecap="round" stroke-linejoin="round"/>
<path d="M260.995 223.022C262.753 223.022 264.178 221.596 264.178 219.838C264.178 218.079 262.753 216.654 260.995 216.654C259.237 216.654 257.812 218.079 257.812 219.838C257.812 221.596 259.237 223.022 260.995 223.022Z" fill="#161D35" stroke="#37BFF0" stroke-width="2" stroke-miterlimit="10" stroke-linecap="round" stroke-linejoin="round"/>
<path d="M353.543 223.022C355.301 223.022 356.726 221.596 356.726 219.838C356.726 218.079 355.301 216.654 353.543 216.654C351.785 216.654 350.36 218.079 350.36 219.838C350.36 221.596 351.785 223.022 353.543 223.022Z" fill="#161D35" stroke="#37BFF0" stroke-width="2" stroke-miterlimit="10" stroke-linecap="round" stroke-linejoin="round"/>
<path d="M409.25 341.895V271.845" stroke="#37BFF0" stroke-width="2" stroke-miterlimit="10" stroke-linecap="round" stroke-linejoin="round"/>
<path d="M402.883 341.895V271.845" stroke="#37BFF0" stroke-width="2" stroke-miterlimit="10" stroke-linecap="round" stroke-linejoin="round"/>
<path d="M406.066 275.029C407.824 275.029 409.25 273.603 409.25 271.845C409.25 270.086 407.824 268.661 406.066 268.661C404.308 268.661 402.883 270.086 402.883 271.845C402.883 273.603 404.308 275.029 406.066 275.029Z" fill="#161D35" stroke="#37BFF0" stroke-width="2" stroke-miterlimit="10" stroke-linecap="round" stroke-linejoin="round"/>
<path d="M406.066 345.079C407.824 345.079 409.25 343.654 409.25 341.895C409.25 340.137 407.824 338.711 406.066 338.711C404.308 338.711 402.883 340.137 402.883 341.895C402.883 343.654 404.308 345.079 406.066 345.079Z" fill="#161D35" stroke="#37BFF0" stroke-width="2" stroke-miterlimit="10" stroke-linecap="round" stroke-linejoin="round"/>
<path d="M409.25 166.769V81.4993" stroke="#37BFF0" stroke-width="2" stroke-miterlimit="10" stroke-linecap="round" stroke-linejoin="round"/>
<path d="M402.883 166.769V81.4993" stroke="#37BFF0" stroke-width="2" stroke-miterlimit="10" stroke-linecap="round" stroke-linejoin="round"/>
<path d="M406.066 58.4995C412.513 58.4995 417.738 53.2724 417.738 46.8244C417.738 40.3765 412.513 35.1494 406.066 35.1494C399.62 35.1494 394.395 40.3765 394.395 46.8244C394.395 53.2724 399.62 58.4995 406.066 58.4995Z" stroke="#37BFF0" stroke-width="2" stroke-miterlimit="10" stroke-linecap="round" stroke-linejoin="round"/>
<path d="M406.066 169.954C407.824 169.954 409.25 168.528 409.25 166.77C409.25 165.011 407.824 163.585 406.066 163.585C404.308 163.585 402.883 165.011 402.883 166.77C402.883 168.528 404.308 169.954 406.066 169.954Z" fill="#161D35" stroke="#37BFF0" stroke-width="2" stroke-miterlimit="10" stroke-linecap="round" stroke-linejoin="round"/>
<path d="M406.066 84.5669C407.824 84.5669 409.25 83.1413 409.25 81.3828C409.25 79.6243 407.824 78.1987 406.066 78.1987C404.308 78.1987 402.883 79.6243 402.883 81.3828C402.883 83.1413 404.308 84.5669 406.066 84.5669Z" fill="#161D35" stroke="#37BFF0" stroke-width="2" stroke-miterlimit="10" stroke-linecap="round" stroke-linejoin="round"/>
<path d="M297.815 216.654L301.698 212.769" stroke="#37BFF0" stroke-width="2" stroke-miterlimit="10" stroke-linecap="round" stroke-linejoin="round"/>
<path d="M297.815 216.654L301.698 220.538" stroke="#37BFF0" stroke-width="2" stroke-miterlimit="10" stroke-linecap="round" stroke-linejoin="round"/>
<path d="M316.734 223.213L312.85 219.318" stroke="#37BFF0" stroke-width="2" stroke-miterlimit="10" stroke-linecap="round" stroke-linejoin="round"/>
<path d="M312.85 227.097L316.734 223.213" stroke="#37BFF0" stroke-width="2" stroke-miterlimit="10" stroke-linecap="round" stroke-linejoin="round"/>
<path d="M518.743 222.056L514.859 225.94" stroke="#37BFF0" stroke-width="2" stroke-miterlimit="10" stroke-linecap="round" stroke-linejoin="round"/>
<path d="M518.743 222.056L514.859 218.161" stroke="#37BFF0" stroke-width="2" stroke-miterlimit="10" stroke-linecap="round" stroke-linejoin="round"/>
<path d="M499.824 215.497L503.707 219.381" stroke="#37BFF0" stroke-width="2" stroke-miterlimit="10" stroke-linecap="round" stroke-linejoin="round"/>
<path d="M503.707 211.612L499.824 215.497" stroke="#37BFF0" stroke-width="2" stroke-miterlimit="10" stroke-linecap="round" stroke-linejoin="round"/>
<path d="M409.345 114.667L413.229 118.552" stroke="#37BFF0" stroke-width="2" stroke-miterlimit="10" stroke-linecap="round" stroke-linejoin="round"/>
<path d="M409.345 114.667L405.462 118.552" stroke="#37BFF0" stroke-width="2" stroke-miterlimit="10" stroke-linecap="round" stroke-linejoin="round"/>
<path d="M402.788 133.592L406.682 129.707" stroke="#37BFF0" stroke-width="2" stroke-miterlimit="10" stroke-linecap="round" stroke-linejoin="round"/>
<path d="M398.904 129.707L402.788 133.591" stroke="#37BFF0" stroke-width="2" stroke-miterlimit="10" stroke-linecap="round" stroke-linejoin="round"/>
<path d="M409.345 297.403L413.229 301.287" stroke="#37BFF0" stroke-width="2" stroke-miterlimit="10" stroke-linecap="round" stroke-linejoin="round"/>
<path d="M409.345 297.403L405.462 301.287" stroke="#37BFF0" stroke-width="2" stroke-miterlimit="10" stroke-linecap="round" stroke-linejoin="round"/>
<path d="M402.788 316.337L406.682 312.442" stroke="#37BFF0" stroke-width="2" stroke-miterlimit="10" stroke-linecap="round" stroke-linejoin="round"/>
<path d="M398.904 312.442L402.788 316.337" stroke="#37BFF0" stroke-width="2" stroke-miterlimit="10" stroke-linecap="round" stroke-linejoin="round"/>
<path d="M425.718 199.407H418.195L413.579 207.399L417.335 213.905L425.718 199.407Z" stroke="white" stroke-miterlimit="10" stroke-linecap="round" stroke-linejoin="round"/>
<path d="M405.409 219.01L393.938 238.677H401.589L412.953 219.01L401.62 199.407H393.959L405.409 219.01Z" stroke="white" stroke-miterlimit="10" stroke-linecap="round" stroke-linejoin="round"/>
<path d="M425.792 238.677L417.335 224.03L413.579 230.536L418.279 238.677H425.792Z" stroke="white" stroke-miterlimit="10" stroke-linecap="round" stroke-linejoin="round"/>
</svg>
