<svg width="660" height="350" viewBox="0 0 660 350" fill="none" xmlns="http://www.w3.org/2000/svg">
<g opacity="0.3">
<path d="M18.3648 200.578C29.5179 211.731 47.5936 211.731 58.7467 200.578C69.8998 189.425 69.8998 171.349 58.7467 160.196" stroke="white" stroke-width="2" stroke-miterlimit="10" stroke-linecap="round" stroke-linejoin="round" stroke-dasharray="5 5"/>
<path d="M18.3648 160.187C7.21173 171.34 7.21173 189.416 18.3648 200.569" stroke="white" stroke-width="2" stroke-miterlimit="10" stroke-linecap="round" stroke-linejoin="round"/>
<path d="M58.7467 160.188C58.231 159.672 57.6891 159.174 57.1472 158.702" stroke="white" stroke-width="2" stroke-linecap="round" stroke-linejoin="round"/>
<path d="M53.511 156.053C43.7302 150.031 31.1087 150.45 21.73 157.303" stroke="white" stroke-width="2" stroke-linecap="round" stroke-linejoin="round" stroke-dasharray="5.14 5.14"/>
<path d="M19.9644 158.702C19.4137 159.174 18.8805 159.672 18.3648 160.188" stroke="white" stroke-width="2" stroke-linecap="round" stroke-linejoin="round"/>
<path d="M157.971 180.169H155.786" stroke="white" stroke-width="2" stroke-linecap="round" stroke-linejoin="round"/>
<path d="M151.232 180.169H71.5693" stroke="white" stroke-width="2" stroke-linecap="round" stroke-linejoin="round" stroke-dasharray="5.21 5.21"/>
<path d="M69.2967 180.169H67.1115" stroke="white" stroke-width="2" stroke-linecap="round" stroke-linejoin="round"/>
<path d="M39.2026 209.004V211.189" stroke="white" stroke-width="2" stroke-linecap="round" stroke-linejoin="round"/>
<path d="M39.2026 215.271V270.337" stroke="white" stroke-width="2" stroke-linecap="round" stroke-linejoin="round" stroke-dasharray="4.67 4.67"/>
<path d="M39.2026 272.383V274.568" stroke="white" stroke-width="2" stroke-linecap="round" stroke-linejoin="round"/>
<path d="M630.596 209.013V211.198" stroke="white" stroke-width="2" stroke-linecap="round" stroke-linejoin="round"/>
<path d="M630.596 215.743V277.103" stroke="white" stroke-width="2" stroke-linecap="round" stroke-linejoin="round" stroke-dasharray="5.2 5.2"/>
<path d="M630.596 279.375V281.561" stroke="white" stroke-width="2" stroke-linecap="round" stroke-linejoin="round"/>
<path d="M497.922 195.622C497.397 196.147 496.864 196.636 496.305 197.091" stroke="white" stroke-width="2" stroke-linecap="round" stroke-linejoin="round"/>
<path d="M492.747 199.459C485.72 203.209 477.075 202.842 470.362 198.358" stroke="white" stroke-width="2" stroke-linecap="round" stroke-linejoin="round" stroke-dasharray="4.89 4.89"/>
<path d="M468.64 197.082C468.081 196.627 467.539 196.138 467.023 195.614" stroke="white" stroke-width="2" stroke-linecap="round" stroke-linejoin="round"/>
<path d="M467.023 195.622C458.492 187.091 458.492 173.255 467.023 164.715C475.554 156.184 489.391 156.184 497.93 164.715C506.461 173.246 506.461 187.083 497.93 195.622" stroke="white" stroke-width="2" stroke-miterlimit="10" stroke-linecap="round" stroke-linejoin="round"/>
<path d="M615.143 318.866C606.612 310.335 606.612 296.498 615.143 287.959" stroke="white" stroke-width="2" stroke-miterlimit="10" stroke-linecap="round" stroke-linejoin="round"/>
<path d="M615.143 287.958C615.667 287.434 616.2 286.945 616.76 286.49" stroke="white" stroke-width="2" stroke-linecap="round" stroke-linejoin="round"/>
<path d="M620.326 284.113C628.586 279.707 639.083 280.992 646.05 287.959C654.581 296.489 654.581 310.326 646.05 318.865C638.559 326.356 626.978 327.274 618.49 321.61" stroke="white" stroke-width="2" stroke-linecap="round" stroke-linejoin="round" stroke-dasharray="4.9 4.9"/>
<path d="M616.768 320.325C616.209 319.871 615.667 319.381 615.151 318.857" stroke="white" stroke-width="2" stroke-linecap="round" stroke-linejoin="round"/>
<path d="M319.052 287.959C327.583 279.428 341.42 279.428 349.96 287.959" stroke="white" stroke-width="2" stroke-miterlimit="10" stroke-linecap="round" stroke-linejoin="round"/>
<path d="M349.951 287.959C350.475 288.483 350.965 289.016 351.419 289.576" stroke="white" stroke-width="2" stroke-linecap="round" stroke-linejoin="round"/>
<path d="M353.797 293.142C358.202 301.402 356.917 311.9 349.951 318.866C341.42 327.397 327.583 327.397 319.044 318.866C311.553 311.375 310.635 299.794 316.299 291.307" stroke="white" stroke-width="2" stroke-linecap="round" stroke-linejoin="round" stroke-dasharray="4.9 4.9"/>
<path d="M317.584 289.576C318.039 289.016 318.528 288.474 319.053 287.959" stroke="white" stroke-width="2" stroke-linecap="round" stroke-linejoin="round"/>
<path d="M610.257 200.579C610.772 201.094 611.314 201.593 611.856 202.065" stroke="white" stroke-width="2" stroke-linecap="round" stroke-linejoin="round"/>
<path d="M615.484 204.713C625.264 210.735 637.886 210.315 647.265 203.463" stroke="white" stroke-width="2" stroke-linecap="round" stroke-linejoin="round" stroke-dasharray="5.14 5.14"/>
<path d="M649.039 202.064C649.59 201.592 650.123 201.094 650.639 200.578" stroke="white" stroke-width="2" stroke-linecap="round" stroke-linejoin="round"/>
<path d="M610.257 160.188C599.104 171.341 599.104 189.417 610.257 200.57" stroke="white" stroke-width="2" stroke-miterlimit="10" stroke-linecap="round" stroke-linejoin="round"/>
<path d="M650.638 200.579C651.154 200.063 651.652 199.521 652.124 198.979" stroke="white" stroke-width="2" stroke-linecap="round" stroke-linejoin="round"/>
<path d="M654.773 195.351C661.556 184.347 660.175 169.732 650.639 160.196C640.552 150.11 624.792 149.148 613.622 157.312" stroke="white" stroke-width="2" stroke-linecap="round" stroke-linejoin="round" stroke-dasharray="5.14 5.14"/>
<path d="M611.856 158.702C611.305 159.174 610.772 159.672 610.257 160.188" stroke="white" stroke-width="2" stroke-linecap="round" stroke-linejoin="round"/>
<path d="M573.231 18.3704C572.715 17.8547 572.174 17.3565 571.632 16.8845" stroke="white" stroke-width="2" stroke-linecap="round" stroke-linejoin="round"/>
<path d="M568.004 14.2271C557 7.44438 542.385 8.82541 532.849 18.3615C522.763 28.4482 521.801 44.2076 529.965 55.3782" stroke="white" stroke-width="2" stroke-linecap="round" stroke-linejoin="round" stroke-dasharray="5.14 5.14"/>
<path d="M531.363 57.1438C531.835 57.6945 532.334 58.2276 532.849 58.7433" stroke="white" stroke-width="2" stroke-linecap="round" stroke-linejoin="round"/>
<path d="M573.231 58.7524C573.747 58.2367 574.245 57.6948 574.717 57.1528" stroke="white" stroke-width="2" stroke-linecap="round" stroke-linejoin="round"/>
<path d="M577.374 53.5164C583.397 43.7356 582.977 31.1141 576.124 21.7354" stroke="white" stroke-width="2" stroke-linecap="round" stroke-linejoin="round" stroke-dasharray="5.14 5.14"/>
<path d="M574.717 19.9697C574.245 19.419 573.747 18.8858 573.231 18.3701" stroke="white" stroke-width="2" stroke-linecap="round" stroke-linejoin="round"/>
<path d="M532.849 58.7522C544.002 69.9053 562.078 69.9053 573.231 58.7522" stroke="white" stroke-width="2" stroke-miterlimit="10" stroke-linecap="round" stroke-linejoin="round"/>
<path d="M502.668 283.291C502.152 282.775 501.61 282.277 501.068 281.805" stroke="white" stroke-width="2" stroke-linecap="round" stroke-linejoin="round"/>
<path d="M497.432 279.148C487.651 273.126 475.03 273.545 465.651 280.398" stroke="white" stroke-width="2" stroke-linecap="round" stroke-linejoin="round" stroke-dasharray="5.14 5.14"/>
<path d="M463.885 281.805C463.335 282.277 462.802 282.775 462.286 283.291" stroke="white" stroke-width="2" stroke-linecap="round" stroke-linejoin="round"/>
<path d="M502.668 323.673C513.821 312.52 513.821 294.444 502.668 283.291" stroke="white" stroke-width="2" stroke-miterlimit="10" stroke-linecap="round" stroke-linejoin="round"/>
<path d="M462.286 283.291C451.133 294.444 451.133 312.52 462.286 323.673C473.439 334.826 491.515 334.826 502.668 323.673" stroke="white" stroke-width="2" stroke-miterlimit="10" stroke-linecap="round" stroke-linejoin="round"/>
<path d="M482.477 202.021V274.568" stroke="white" stroke-width="2" stroke-miterlimit="10" stroke-linecap="round" stroke-linejoin="round" stroke-dasharray="5 5"/>
<path d="M39.2026 211.626C40.6508 211.626 41.8248 210.452 41.8248 209.004C41.8248 207.556 40.6508 206.382 39.2026 206.382C37.7544 206.382 36.5804 207.556 36.5804 209.004C36.5804 210.452 37.7544 211.626 39.2026 211.626Z" stroke="white" stroke-width="2" stroke-miterlimit="10" stroke-linecap="round" stroke-linejoin="round"/>
<path d="M206.717 283.291C195.564 272.138 177.489 272.138 166.336 283.291C155.182 294.444 155.182 312.52 166.336 323.673" stroke="white" stroke-width="2" stroke-miterlimit="10" stroke-linecap="round" stroke-linejoin="round"/>
<path d="M166.336 323.673C166.851 324.189 167.393 324.687 167.935 325.159" stroke="white" stroke-width="2" stroke-linecap="round" stroke-linejoin="round"/>
<path d="M171.563 327.808C182.567 334.59 197.181 333.209 206.717 323.673C216.804 313.586 217.766 297.827 209.602 286.656" stroke="white" stroke-width="2" stroke-linecap="round" stroke-linejoin="round" stroke-dasharray="5.14 5.14"/>
<path d="M208.203 284.891C207.731 284.34 207.233 283.807 206.717 283.291" stroke="white" stroke-width="2" stroke-linecap="round" stroke-linejoin="round"/>
<path d="M166.336 200.578C177.489 211.731 195.564 211.731 206.717 200.578C217.871 189.425 217.871 171.349 206.717 160.196" stroke="white" stroke-width="2" stroke-miterlimit="10" stroke-linecap="round" stroke-linejoin="round"/>
<path d="M166.336 160.188C165.82 160.703 165.322 161.245 164.85 161.787" stroke="white" stroke-width="2" stroke-linecap="round" stroke-linejoin="round"/>
<path d="M162.192 165.423C156.17 175.204 156.59 187.826 163.442 197.204" stroke="white" stroke-width="2" stroke-linecap="round" stroke-linejoin="round" stroke-dasharray="5.14 5.14"/>
<path d="M164.85 198.97C165.322 199.521 165.82 200.054 166.336 200.57" stroke="white" stroke-width="2" stroke-linecap="round" stroke-linejoin="round"/>
<path d="M206.717 160.188C195.564 149.034 177.489 149.034 166.336 160.188" stroke="white" stroke-width="2" stroke-miterlimit="10" stroke-linecap="round" stroke-linejoin="round"/>
<path d="M18.3648 323.673C29.5179 334.826 47.5936 334.826 58.7467 323.673C69.8998 312.52 69.8998 294.444 58.7467 283.291" stroke="white" stroke-width="2" stroke-miterlimit="10" stroke-linecap="round" stroke-linejoin="round"/>
<path d="M18.3648 283.291C7.21173 294.444 7.21173 312.52 18.3648 323.673" stroke="white" stroke-width="2" stroke-miterlimit="10" stroke-linecap="round" stroke-linejoin="round"/>
<path d="M58.7467 283.291C58.231 282.775 57.6891 282.277 57.1472 281.805" stroke="white" stroke-width="2" stroke-linecap="round" stroke-linejoin="round"/>
<path d="M53.511 279.148C43.7302 273.126 31.1087 273.545 21.73 280.398" stroke="white" stroke-width="2" stroke-linecap="round" stroke-linejoin="round" stroke-dasharray="5.14 5.14"/>
<path d="M19.9644 281.805C19.4137 282.277 18.8805 282.775 18.3648 283.291" stroke="white" stroke-width="2" stroke-linecap="round" stroke-linejoin="round"/>
<path d="M157.971 182.791C159.419 182.791 160.593 181.617 160.593 180.169C160.593 178.721 159.419 177.547 157.971 177.547C156.523 177.547 155.349 178.721 155.349 180.169C155.349 181.617 156.523 182.791 157.971 182.791Z" fill="#161D35" stroke="white" stroke-width="2" stroke-miterlimit="10" stroke-linecap="round" stroke-linejoin="round"/>
<path d="M67.1115 182.791C68.5597 182.791 69.7337 181.617 69.7337 180.169C69.7337 178.721 68.5597 177.547 67.1115 177.547C65.6633 177.547 64.4893 178.721 64.4893 180.169C64.4893 181.617 65.6633 182.791 67.1115 182.791Z" fill="#161D35" stroke="white" stroke-width="2" stroke-miterlimit="10" stroke-linecap="round" stroke-linejoin="round"/>
<path d="M482.477 277.19C483.925 277.19 485.099 276.016 485.099 274.568C485.099 273.12 483.925 271.946 482.477 271.946C481.029 271.946 479.855 273.12 479.855 274.568C479.855 276.016 481.029 277.19 482.477 277.19Z" fill="#161D35" stroke="white" stroke-width="2" stroke-miterlimit="10" stroke-linecap="round" stroke-linejoin="round"/>
<path d="M482.477 204.643C483.925 204.643 485.099 203.469 485.099 202.02C485.099 200.572 483.925 199.398 482.477 199.398C481.029 199.398 479.855 200.572 479.855 202.02C479.855 203.469 481.029 204.643 482.477 204.643Z" fill="#161D35" stroke="white" stroke-width="2" stroke-miterlimit="10" stroke-linecap="round" stroke-linejoin="round"/>
<path d="M630.596 284.183C632.044 284.183 633.218 283.009 633.218 281.561C633.218 280.112 632.044 278.938 630.596 278.938C629.148 278.938 627.974 280.112 627.974 281.561C627.974 283.009 629.148 284.183 630.596 284.183Z" fill="#161D35" stroke="white" stroke-width="2" stroke-miterlimit="10" stroke-linecap="round" stroke-linejoin="round"/>
<path d="M630.596 211.635C632.044 211.635 633.218 210.461 633.218 209.013C633.218 207.565 632.044 206.391 630.596 206.391C629.148 206.391 627.974 207.565 627.974 209.013C627.974 210.461 629.148 211.635 630.596 211.635Z" fill="#161D35" stroke="white" stroke-width="2" stroke-miterlimit="10" stroke-linecap="round" stroke-linejoin="round"/>
<path d="M331.875 67.0207H306.038V10.0928H362.966V67.0207H337.119" stroke="white" stroke-width="2" stroke-miterlimit="10" stroke-linecap="round" stroke-linejoin="round"/>
<path d="M39.2026 277.19C40.6508 277.19 41.8248 276.016 41.8248 274.568C41.8248 273.12 40.6508 271.946 39.2026 271.946C37.7544 271.946 36.5804 273.12 36.5804 274.568C36.5804 276.016 37.7544 277.19 39.2026 277.19Z" stroke="white" stroke-width="2" stroke-miterlimit="10" stroke-linecap="round" stroke-linejoin="round"/>
</g>
<g opacity="0.4">
<path d="M552.551 67.6221V166.479" stroke="#69BFAD" stroke-width="2" stroke-miterlimit="10" stroke-linecap="round" stroke-linejoin="round"/>
<path d="M186.037 227.664V211.931" stroke="#69BFAD" stroke-width="2" stroke-miterlimit="10" stroke-linecap="round" stroke-linejoin="round"/>
<path d="M186.037 274.864V256.508" stroke="#69BFAD" stroke-width="2" stroke-miterlimit="10" stroke-linecap="round" stroke-linejoin="round"/>
<path d="M97.6253 303.708H69.2444" stroke="#69BFAD" stroke-width="2" stroke-miterlimit="10" stroke-linecap="round" stroke-linejoin="round"/>
<path d="M154.859 303.708H126.47" stroke="#69BFAD" stroke-width="2" stroke-miterlimit="10" stroke-linecap="round" stroke-linejoin="round"/>
<path d="M538.129 180.901L503.839 180.464" stroke="#69BFAD" stroke-width="2" stroke-miterlimit="10" stroke-linecap="round" stroke-linejoin="round"/>
<path d="M601.263 180.464L566.973 180.901" stroke="#69BFAD" stroke-width="2" stroke-miterlimit="10" stroke-linecap="round" stroke-linejoin="round"/>
<path d="M544.973 303.708H510.543" stroke="#69BFAD" stroke-width="2" stroke-miterlimit="10" stroke-linecap="round" stroke-linejoin="round"/>
<path d="M608.255 303.708H573.817" stroke="#69BFAD" stroke-width="2" stroke-miterlimit="10" stroke-linecap="round" stroke-linejoin="round"/>
<path d="M186.037 256.508C194.002 256.508 200.459 250.051 200.459 242.086C200.459 234.121 194.002 227.664 186.037 227.664C178.072 227.664 171.615 234.121 171.615 242.086C171.615 250.051 178.072 256.508 186.037 256.508Z" stroke="#69BFAD" stroke-width="2" stroke-miterlimit="10" stroke-linecap="round" stroke-linejoin="round"/>
<path d="M180.26 247.767H182.471L185.792 242.077L182.48 236.405H180.321L183.581 242.077L180.26 247.767Z" fill="#69BFAD" stroke="#69BFAD" stroke-width="0.75" stroke-miterlimit="10" stroke-linecap="round" stroke-linejoin="round"/>
<path d="M112.047 317.693C120.013 317.693 126.47 311.236 126.47 303.271C126.47 295.306 120.013 288.849 112.047 288.849C104.082 288.849 97.6253 295.306 97.6253 303.271C97.6253 311.236 104.082 317.693 112.047 317.693Z" stroke="#69BFAD" stroke-width="2" stroke-miterlimit="10" stroke-linecap="round" stroke-linejoin="round"/>
<path d="M106.27 308.515H108.49L111.803 302.825L108.49 297.152H106.331L109.591 302.825L106.27 308.515Z" fill="#69BFAD" stroke="#69BFAD" stroke-width="0.75" stroke-miterlimit="10" stroke-linecap="round" stroke-linejoin="round"/>
<path d="M552.551 195.323C560.516 195.323 566.973 188.866 566.973 180.901C566.973 172.936 560.516 166.479 552.551 166.479C544.586 166.479 538.129 172.936 538.129 180.901C538.129 188.866 544.586 195.323 552.551 195.323Z" stroke="#69BFAD" stroke-width="2" stroke-miterlimit="10" stroke-linecap="round" stroke-linejoin="round"/>
<path d="M546.773 186.583H548.985L552.306 180.892L548.993 175.22H546.835L550.086 180.892L546.773 186.583Z" fill="#69BFAD" stroke="#69BFAD" stroke-width="0.75" stroke-miterlimit="10" stroke-linecap="round" stroke-linejoin="round"/>
<path d="M559.395 317.693C567.36 317.693 573.817 311.236 573.817 303.271C573.817 295.306 567.36 288.849 559.395 288.849C551.43 288.849 544.973 295.306 544.973 303.271C544.973 311.236 551.43 317.693 559.395 317.693Z" stroke="#69BFAD" stroke-width="2" stroke-miterlimit="10" stroke-linecap="round" stroke-linejoin="round"/>
<path d="M553.617 308.515H555.837L559.15 302.825L555.837 297.152H553.678L556.939 302.825L553.617 308.515Z" fill="#69BFAD" stroke="#69BFAD" stroke-width="0.75" stroke-miterlimit="10" stroke-linecap="round" stroke-linejoin="round"/>
<path d="M552.551 70.2444C553.999 70.2444 555.173 69.0704 555.173 67.6222C555.173 66.174 553.999 65 552.551 65C551.103 65 549.929 66.174 549.929 67.6222C549.929 69.0704 551.103 70.2444 552.551 70.2444Z" fill="#161D35" stroke="#69BFAD" stroke-width="2" stroke-miterlimit="10" stroke-linecap="round" stroke-linejoin="round"/>
<path d="M608.255 306.33C609.703 306.33 610.877 305.156 610.877 303.708C610.877 302.259 609.703 301.085 608.255 301.085C606.807 301.085 605.633 302.259 605.633 303.708C605.633 305.156 606.807 306.33 608.255 306.33Z" fill="#161D35" stroke="#69BFAD" stroke-width="2" stroke-miterlimit="10" stroke-linecap="round" stroke-linejoin="round"/>
<path d="M510.543 306.33C511.991 306.33 513.165 305.156 513.165 303.708C513.165 302.259 511.991 301.085 510.543 301.085C509.095 301.085 507.921 302.259 507.921 303.708C507.921 305.156 509.095 306.33 510.543 306.33Z" fill="#161D35" stroke="#69BFAD" stroke-width="2" stroke-miterlimit="10" stroke-linecap="round" stroke-linejoin="round"/>
<path d="M157.481 306.33C158.93 306.33 160.104 305.156 160.104 303.708C160.104 302.259 158.93 301.085 157.481 301.085C156.033 301.085 154.859 302.259 154.859 303.708C154.859 305.156 156.033 306.33 157.481 306.33Z" fill="#161D35" stroke="#69BFAD" stroke-width="2" stroke-miterlimit="10" stroke-linecap="round" stroke-linejoin="round"/>
<path d="M66.6222 306.33C68.0704 306.33 69.2444 305.156 69.2444 303.708C69.2444 302.259 68.0704 301.085 66.6222 301.085C65.174 301.085 64 302.259 64 303.708C64 305.156 65.174 306.33 66.6222 306.33Z" fill="#161D35" stroke="#69BFAD" stroke-width="2" stroke-miterlimit="10" stroke-linecap="round" stroke-linejoin="round"/>
<path d="M601.263 183.087C602.711 183.087 603.885 181.913 603.885 180.464C603.885 179.016 602.711 177.842 601.263 177.842C599.814 177.842 598.64 179.016 598.64 180.464C598.64 181.913 599.814 183.087 601.263 183.087Z" fill="#161D35" stroke="#69BFAD" stroke-width="2" stroke-miterlimit="10" stroke-linecap="round" stroke-linejoin="round"/>
<path d="M186.037 211.931C187.485 211.931 188.659 210.757 188.659 209.308C188.659 207.86 187.485 206.686 186.037 206.686C184.589 206.686 183.415 207.86 183.415 209.308C183.415 210.757 184.589 211.931 186.037 211.931Z" fill="#161D35" stroke="#69BFAD" stroke-width="2" stroke-miterlimit="10" stroke-linecap="round" stroke-linejoin="round"/>
<path d="M186.037 277.486C187.485 277.486 188.659 276.312 188.659 274.863C188.659 273.415 187.485 272.241 186.037 272.241C184.589 272.241 183.415 273.415 183.415 274.863C183.415 276.312 184.589 277.486 186.037 277.486Z" fill="#161D35" stroke="#69BFAD" stroke-width="2" stroke-miterlimit="10" stroke-linecap="round" stroke-linejoin="round"/>
<path d="M117.808 297.152H115.596L114.241 299.504L115.343 301.418L117.808 297.152Z" stroke="white" stroke-width="0.75" stroke-miterlimit="10" stroke-linecap="round" stroke-linejoin="round"/>
<path d="M111.82 302.825L108.499 308.515H110.719L114.005 302.825L110.728 297.152H108.507L111.82 302.825Z" stroke="white" stroke-width="0.75" stroke-miterlimit="10" stroke-linecap="round" stroke-linejoin="round"/>
<path d="M117.834 309.389L115.343 305.08L114.241 306.994L115.622 309.389H117.834Z" stroke="white" stroke-width="0.75" stroke-miterlimit="10" stroke-linecap="round" stroke-linejoin="round"/>
<path d="M191.797 236.405H189.586L188.222 238.756L189.332 240.67L191.797 236.405Z" stroke="white" stroke-width="0.75" stroke-miterlimit="10" stroke-linecap="round" stroke-linejoin="round"/>
<path d="M185.81 242.077L182.488 247.767H184.709L187.995 242.077L184.709 236.405H182.497L185.81 242.077Z" stroke="white" stroke-width="0.75" stroke-miterlimit="10" stroke-linecap="round" stroke-linejoin="round"/>
<path d="M191.815 247.767L189.332 243.458L188.222 245.372L189.603 247.767H191.815Z" stroke="white" stroke-width="0.75" stroke-miterlimit="10" stroke-linecap="round" stroke-linejoin="round"/>
<path d="M558.311 175.22H556.1L554.736 177.571L555.846 179.485L558.311 175.22Z" stroke="white" stroke-width="0.75" stroke-miterlimit="10" stroke-linecap="round" stroke-linejoin="round"/>
<path d="M552.324 180.892L549.002 186.583H551.214L554.509 180.892L551.222 175.22H549.011L552.324 180.892Z" stroke="white" stroke-width="0.75" stroke-miterlimit="10" stroke-linecap="round" stroke-linejoin="round"/>
<path d="M558.328 186.583L555.846 182.273L554.736 184.188L556.117 186.583H558.328Z" stroke="white" stroke-width="0.75" stroke-miterlimit="10" stroke-linecap="round" stroke-linejoin="round"/>
<path d="M565.155 297.152H562.944L561.589 299.504L562.69 301.418L565.155 297.152Z" stroke="white" stroke-width="0.75" stroke-miterlimit="10" stroke-linecap="round" stroke-linejoin="round"/>
<path d="M559.168 302.825L555.855 308.515H558.066L561.353 302.825L558.075 297.152H555.855L559.168 302.825Z" stroke="white" stroke-width="0.75" stroke-miterlimit="10" stroke-linecap="round" stroke-linejoin="round"/>
<path d="M565.181 309.389L562.69 305.08L561.589 306.994L562.97 309.389H565.181Z" stroke="white" stroke-width="0.75" stroke-miterlimit="10" stroke-linecap="round" stroke-linejoin="round"/>
<path d="M503.839 183.087C505.287 183.087 506.461 181.913 506.461 180.464C506.461 179.016 505.287 177.842 503.839 177.842C502.391 177.842 501.217 179.016 501.217 180.464C501.217 181.913 502.391 183.087 503.839 183.087Z" fill="#161D35" stroke="#69BFAD" stroke-width="2" stroke-miterlimit="10" stroke-linecap="round" stroke-linejoin="round"/>
</g>
<path d="M377.764 180.387C377.764 156.49 358.394 137.121 334.497 137.121C310.6 137.121 291.231 156.49 291.231 180.387" stroke="#37BFF0" stroke-width="2" stroke-miterlimit="10" stroke-linecap="round" stroke-linejoin="round"/>
<path d="M291.231 180.387C291.231 204.284 310.6 223.654 334.497 223.654C358.394 223.654 377.764 204.284 377.764 180.387" stroke="#37BFF0" stroke-width="2" stroke-miterlimit="10" stroke-linecap="round" stroke-linejoin="round"/>
<path d="M318.257 196.558H324.559L334.008 180.361L324.585 164.217H318.432L327.706 180.361L318.257 196.558Z" fill="#37BFF0" stroke="#37BFF0" stroke-miterlimit="10" stroke-linecap="round" stroke-linejoin="round"/>
<path d="M461.281 177.547H377.764" stroke="#37BFF0" stroke-width="2" stroke-miterlimit="10" stroke-linecap="round" stroke-linejoin="round"/>
<path d="M461.281 182.791H377.764" stroke="#37BFF0" stroke-width="2" stroke-miterlimit="10" stroke-linecap="round" stroke-linejoin="round"/>
<path d="M464.515 281.727L364.959 211.504" stroke="#37BFF0" stroke-width="2" stroke-miterlimit="10" stroke-linecap="round" stroke-linejoin="round"/>
<path d="M377.764 182.791C379.212 182.791 380.386 181.617 380.386 180.169C380.386 178.721 379.212 177.547 377.764 177.547C376.315 177.547 375.141 178.721 375.141 180.169C375.141 181.617 376.315 182.791 377.764 182.791Z" fill="#161D35" stroke="#37BFF0" stroke-width="2" stroke-miterlimit="10" stroke-linecap="round" stroke-linejoin="round"/>
<path d="M464.515 284.349C465.963 284.349 467.137 283.175 467.137 281.727C467.137 280.278 465.963 279.104 464.515 279.104C463.067 279.104 461.893 280.278 461.893 281.727C461.893 283.175 463.067 284.349 464.515 284.349Z" fill="#161D35" stroke="#37BFF0" stroke-width="2" stroke-miterlimit="10" stroke-linecap="round" stroke-linejoin="round"/>
<path d="M364.959 214.126C366.407 214.126 367.581 212.952 367.581 211.504C367.581 210.056 366.407 208.882 364.959 208.882C363.51 208.882 362.336 210.056 362.336 211.504C362.336 212.952 363.51 214.126 364.959 214.126Z" fill="#161D35" stroke="#37BFF0" stroke-width="2" stroke-miterlimit="10" stroke-linecap="round" stroke-linejoin="round"/>
<path d="M460.625 182.791C462.073 182.791 463.247 181.617 463.247 180.169C463.247 178.721 462.073 177.547 460.625 177.547C459.177 177.547 458.003 178.721 458.003 180.169C458.003 181.617 459.177 182.791 460.625 182.791Z" fill="#161D35" stroke="#37BFF0" stroke-width="2" stroke-miterlimit="10" stroke-linecap="round" stroke-linejoin="round"/>
<path d="M291.231 178.421H214.995" stroke="#37BFF0" stroke-width="2" stroke-miterlimit="10" stroke-linecap="round" stroke-linejoin="round"/>
<path d="M291.231 183.665H214.995" stroke="#37BFF0" stroke-width="2" stroke-miterlimit="10" stroke-linecap="round" stroke-linejoin="round"/>
<path d="M214.995 183.665C216.443 183.665 217.617 182.491 217.617 181.043C217.617 179.595 216.443 178.421 214.995 178.421C213.547 178.421 212.373 179.595 212.373 181.043C212.373 182.491 213.547 183.665 214.995 183.665Z" fill="#161D35" stroke="#37BFF0" stroke-width="2" stroke-miterlimit="10" stroke-linecap="round" stroke-linejoin="round"/>
<path d="M291.231 183.665C292.679 183.665 293.853 182.491 293.853 181.043C293.853 179.595 292.679 178.421 291.231 178.421C289.783 178.421 288.609 179.595 288.609 181.043C288.609 182.491 289.783 183.665 291.231 183.665Z" fill="#161D35" stroke="#37BFF0" stroke-width="2" stroke-miterlimit="10" stroke-linecap="round" stroke-linejoin="round"/>
<path d="M337.119 281.56V223.872" stroke="#37BFF0" stroke-width="2" stroke-miterlimit="10" stroke-linecap="round" stroke-linejoin="round"/>
<path d="M331.875 281.56V223.872" stroke="#37BFF0" stroke-width="2" stroke-miterlimit="10" stroke-linecap="round" stroke-linejoin="round"/>
<path d="M334.497 226.494C335.945 226.494 337.119 225.32 337.119 223.872C337.119 222.424 335.945 221.25 334.497 221.25C333.049 221.25 331.875 222.424 331.875 223.872C331.875 225.32 333.049 226.494 334.497 226.494Z" fill="#161D35" stroke="#37BFF0" stroke-width="2" stroke-miterlimit="10" stroke-linecap="round" stroke-linejoin="round"/>
<path d="M334.497 284.183C335.945 284.183 337.119 283.009 337.119 281.561C337.119 280.112 335.945 278.938 334.497 278.938C333.049 278.938 331.875 280.112 331.875 281.561C331.875 283.009 333.049 284.183 334.497 284.183Z" fill="#161D35" stroke="#37BFF0" stroke-width="2" stroke-miterlimit="10" stroke-linecap="round" stroke-linejoin="round"/>
<path d="M337.119 137.339V67.1169" stroke="#37BFF0" stroke-width="2" stroke-miterlimit="10" stroke-linecap="round" stroke-linejoin="round"/>
<path d="M331.875 137.339V67.1169" stroke="#37BFF0" stroke-width="2" stroke-miterlimit="10" stroke-linecap="round" stroke-linejoin="round"/>
<path d="M334.497 48.176C339.807 48.176 344.112 43.8713 344.112 38.5613C344.112 33.2512 339.807 28.9465 334.497 28.9465C329.187 28.9465 324.883 33.2512 324.883 38.5613C324.883 43.8713 329.187 48.176 334.497 48.176Z" stroke="#37BFF0" stroke-width="2" stroke-miterlimit="10" stroke-linecap="round" stroke-linejoin="round"/>
<path d="M334.497 139.962C335.945 139.962 337.119 138.788 337.119 137.339C337.119 135.891 335.945 134.717 334.497 134.717C333.049 134.717 331.875 135.891 331.875 137.339C331.875 138.788 333.049 139.962 334.497 139.962Z" fill="#161D35" stroke="#37BFF0" stroke-width="2" stroke-miterlimit="10" stroke-linecap="round" stroke-linejoin="round"/>
<path d="M334.497 69.6433C335.945 69.6433 337.119 68.4693 337.119 67.0211C337.119 65.5729 335.945 64.3989 334.497 64.3989C333.049 64.3989 331.875 65.5729 331.875 67.0211C331.875 68.4693 333.049 69.6433 334.497 69.6433Z" fill="#161D35" stroke="#37BFF0" stroke-width="2" stroke-miterlimit="10" stroke-linecap="round" stroke-linejoin="round"/>
<path d="M245.325 178.421L248.524 175.222" stroke="#37BFF0" stroke-width="2" stroke-miterlimit="10" stroke-linecap="round" stroke-linejoin="round"/>
<path d="M245.325 178.421L248.524 181.62" stroke="#37BFF0" stroke-width="2" stroke-miterlimit="10" stroke-linecap="round" stroke-linejoin="round"/>
<path d="M260.91 183.822L257.711 180.615" stroke="#37BFF0" stroke-width="2" stroke-miterlimit="10" stroke-linecap="round" stroke-linejoin="round"/>
<path d="M257.711 187.021L260.91 183.822" stroke="#37BFF0" stroke-width="2" stroke-miterlimit="10" stroke-linecap="round" stroke-linejoin="round"/>
<path d="M427.314 182.87L424.115 186.069" stroke="#37BFF0" stroke-width="2" stroke-miterlimit="10" stroke-linecap="round" stroke-linejoin="round"/>
<path d="M427.314 182.87L424.115 179.662" stroke="#37BFF0" stroke-width="2" stroke-miterlimit="10" stroke-linecap="round" stroke-linejoin="round"/>
<path d="M411.73 177.468L414.929 180.667" stroke="#37BFF0" stroke-width="2" stroke-miterlimit="10" stroke-linecap="round" stroke-linejoin="round"/>
<path d="M414.929 174.269L411.73 177.468" stroke="#37BFF0" stroke-width="2" stroke-miterlimit="10" stroke-linecap="round" stroke-linejoin="round"/>
<path d="M337.198 94.4314L340.397 97.6305" stroke="#37BFF0" stroke-width="2" stroke-miterlimit="10" stroke-linecap="round" stroke-linejoin="round"/>
<path d="M337.198 94.4316L333.999 97.6307" stroke="#37BFF0" stroke-width="2" stroke-miterlimit="10" stroke-linecap="round" stroke-linejoin="round"/>
<path d="M331.796 110.016L335.004 106.817" stroke="#37BFF0" stroke-width="2" stroke-miterlimit="10" stroke-linecap="round" stroke-linejoin="round"/>
<path d="M328.597 106.817L331.796 110.016" stroke="#37BFF0" stroke-width="2" stroke-miterlimit="10" stroke-linecap="round" stroke-linejoin="round"/>
<path d="M337.198 244.92L340.397 248.119" stroke="#37BFF0" stroke-width="2" stroke-miterlimit="10" stroke-linecap="round" stroke-linejoin="round"/>
<path d="M337.198 244.92L333.999 248.119" stroke="#37BFF0" stroke-width="2" stroke-miterlimit="10" stroke-linecap="round" stroke-linejoin="round"/>
<path d="M331.796 260.513L335.004 257.305" stroke="#37BFF0" stroke-width="2" stroke-miterlimit="10" stroke-linecap="round" stroke-linejoin="round"/>
<path d="M328.597 257.305L331.796 260.513" stroke="#37BFF0" stroke-width="2" stroke-miterlimit="10" stroke-linecap="round" stroke-linejoin="round"/>
<path d="M350.685 164.217H344.488L340.686 170.799L343.78 176.157L350.685 164.217Z" stroke="white" stroke-miterlimit="10" stroke-linecap="round" stroke-linejoin="round"/>
<path d="M333.955 180.361L324.507 196.558H330.809L340.17 180.361L330.835 164.217H324.524L333.955 180.361Z" stroke="white" stroke-miterlimit="10" stroke-linecap="round" stroke-linejoin="round"/>
<path d="M350.746 196.558L343.78 184.496L340.686 189.854L344.558 196.558H350.746Z" stroke="white" stroke-miterlimit="10" stroke-linecap="round" stroke-linejoin="round"/>
</svg>
